<svg xmlns="http://www.w3.org/2000/svg" xmlns:xlink="http://www.w3.org/1999/xlink" width="935" zoomAndPan="magnify" viewBox="0 0 701.25 56.249996" height="75" preserveAspectRatio="xMidYMid meet" version="1.0"><defs><g/></defs><g fill="#ffffff" fill-opacity="1"><g transform="translate(14.511003, 43.93914)"><g><path d="M 5.753906 -13.546875 C 5.9375 -13.769531 6.160156 -13.957031 5.902344 -14.253906 C 5.863281 -14.253906 5.902344 -14.328125 5.902344 -14.363281 C 5.976562 -15.21875 5.902344 -16.070312 5.863281 -16.925781 C 5.828125 -17.148438 5.789062 -17.371094 5.828125 -17.628906 C 5.863281 -18.261719 5.902344 -18.894531 5.828125 -19.523438 C 5.753906 -19.933594 5.679688 -20.339844 5.863281 -20.710938 L 5.640625 -21.007812 C 5.976562 -21.15625 5.789062 -21.453125 5.828125 -21.675781 C 5.902344 -22.34375 5.789062 -23.050781 5.828125 -23.71875 C 5.828125 -24.3125 5.863281 -24.867188 5.863281 -25.425781 L 6.011719 -26.464844 C 6.011719 -26.800781 5.9375 -27.246094 6.199219 -27.503906 C 6.457031 -27.726562 6.753906 -27.726562 7.050781 -27.800781 C 7.050781 -28.914062 7.089844 -29.878906 7.089844 -29.878906 C 7.089844 -30.398438 7.125 -31.363281 7.125 -32.328125 L 6.867188 -32.328125 C 6.421875 -32.328125 5.9375 -32.328125 5.492188 -32.253906 C 4.378906 -32.03125 3.191406 -31.105469 2.523438 -30.25 C 2.117188 -29.730469 1.894531 -29.136719 1.632812 -28.542969 C 1.523438 -28.246094 1.300781 -27.875 1.632812 -27.578125 C 1.449219 -27.320312 1.410156 -26.167969 1.410156 -25.015625 C 1.449219 -24.164062 1.335938 -23.308594 1.410156 -22.382812 C 1.375 -22.382812 1.300781 -22.382812 1.300781 -22.269531 C 1.300781 -22.121094 1.375 -21.9375 1.335938 -21.789062 C 1.226562 -21.195312 1.300781 -20.5625 1.375 -19.96875 C 1.449219 -19.300781 1.484375 -18.632812 1.410156 -17.964844 C 1.375 -17.40625 1.375 -16.886719 1.375 -16.332031 L 1.261719 -15.253906 C 1.261719 -15.144531 1.226562 -14.996094 1.261719 -14.882812 C 1.375 -14.214844 1.335938 -13.511719 1.335938 -12.804688 C 1.335938 -12.285156 1.261719 -11.730469 1.375 -11.246094 C 1.484375 -10.691406 1.449219 -10.132812 1.484375 -9.613281 C 1.523438 -8.984375 1.410156 -8.351562 1.484375 -7.757812 C 1.597656 -6.941406 1.484375 -6.125 1.523438 -5.34375 C 1.523438 -4.714844 1.484375 -4.082031 1.597656 -3.453125 C 1.746094 -2.671875 2.042969 -1.894531 2.636719 -1.335938 C 3.265625 -0.707031 4.007812 -0.222656 4.9375 0 C 5.492188 0.113281 6.308594 0.410156 6.902344 0.410156 C 6.941406 0.410156 7.015625 0.371094 7.089844 0.371094 C 7.089844 0.1875 7.050781 0 7.050781 -0.1875 C 7.089844 -0.667969 7.125 -1.300781 7.125 -1.78125 C 7.125 -2.449219 7.089844 -3.082031 7.050781 -3.75 C 6.792969 -3.824219 6.496094 -3.933594 6.234375 -4.046875 C 6.085938 -4.640625 6.011719 -5.160156 6.050781 -5.714844 C 6.085938 -6.050781 6.160156 -6.347656 6.160156 -6.679688 C 6.125 -7.089844 6.085938 -7.460938 6.085938 -7.867188 C 6.085938 -8.3125 5.902344 -8.722656 6.125 -9.167969 C 6.125 -9.167969 6.085938 -9.167969 6.050781 -9.242188 C 6.050781 -9.28125 6.085938 -9.28125 6.085938 -9.316406 L 6.085938 -11.394531 C 6.085938 -11.394531 6.011719 -11.433594 5.976562 -11.46875 C 5.976562 -11.542969 6.125 -11.582031 6.085938 -11.804688 C 6.085938 -11.839844 5.9375 -11.953125 5.9375 -12.0625 C 6.199219 -12.433594 5.863281 -12.84375 6.125 -13.140625 C 6.050781 -13.25 5.9375 -13.363281 5.976562 -13.472656 Z M 8.3125 0.296875 C 8.871094 0.261719 9.355469 0.0742188 9.800781 -0.261719 C 10.246094 -0.59375 10.46875 -1.078125 10.914062 -1.375 C 11.136719 -0.816406 11.171875 -0.1875 11.839844 0.0742188 C 12.433594 0 13.101562 0.1875 13.734375 -0.0390625 C 13.957031 -0.484375 13.546875 -0.929688 13.84375 -1.335938 C 13.695312 -1.484375 13.660156 -1.632812 13.695312 -1.855469 C 13.769531 -2.339844 13.84375 -2.859375 13.769531 -3.378906 C 13.660156 -3.75 13.695312 -4.121094 13.734375 -4.492188 C 13.84375 -5.417969 13.769531 -6.347656 13.769531 -7.273438 C 13.734375 -7.792969 13.734375 -8.3125 13.882812 -8.796875 C 13.84375 -9.019531 13.734375 -9.207031 13.769531 -9.429688 C 13.957031 -10.246094 13.621094 -11.0625 13.769531 -11.914062 C 13.808594 -12.285156 13.546875 -13.101562 13.734375 -13.472656 C 13.585938 -14.402344 13.734375 -15.367188 13.660156 -16.292969 C 13.660156 -16.40625 13.695312 -16.554688 13.695312 -16.703125 C 13.695312 -17.109375 13.734375 -17.554688 13.769531 -17.929688 C 13.585938 -18.113281 13.4375 -18.226562 13.214844 -18.261719 C 12.992188 -18.300781 12.84375 -18.335938 12.621094 -18.335938 C 11.914062 -18.335938 11.171875 -18.261719 10.429688 -18.375 C 9.539062 -18.484375 8.609375 -18.375 7.683594 -18.410156 C 7.460938 -18.449219 7.199219 -18.226562 7.238281 -18.039062 C 7.3125 -17.742188 7.199219 -17.519531 7.199219 -17.257812 C 7.199219 -16.21875 7.164062 -15.21875 7.347656 -14.214844 C 7.941406 -13.84375 8.609375 -14.105469 9.207031 -13.992188 C 9.355469 -13.472656 9.207031 -12.546875 9.242188 -12.0625 C 9.316406 -12.0625 9.390625 -12.027344 9.503906 -11.988281 C 9.316406 -11.804688 9.316406 -11.582031 9.242188 -11.394531 C 9.09375 -11.0625 9.28125 -10.765625 9.242188 -10.46875 C 9.167969 -9.761719 9.167969 -9.019531 9.207031 -8.3125 L 9.207031 -6.679688 C 9.242188 -6.050781 9.207031 -5.417969 9.167969 -4.75 C 9.167969 -4.453125 9.316406 -4.121094 9.019531 -3.824219 C 8.757812 -3.675781 8.5 -3.636719 8.238281 -3.601562 C 8.203125 -3.414062 8.3125 -3.230469 8.238281 -3.042969 C 8.128906 -2.820312 8.3125 -2.597656 8.203125 -2.339844 C 8.128906 -2.117188 8.203125 -1.855469 8.203125 -1.632812 C 8.164062 -1.335938 8.277344 -1.078125 8.3125 -0.816406 C 8.128906 -0.484375 8.203125 -0.148438 8.238281 0.222656 L 8.238281 0.335938 C 8.238281 0.335938 8.277344 0.296875 8.3125 0.296875 Z M 8.460938 -27.914062 C 8.910156 -27.914062 9.355469 -27.578125 9.390625 -27.246094 C 9.429688 -26.910156 9.429688 -26.578125 9.390625 -26.242188 C 9.355469 -25.683594 9.464844 -25.3125 9.316406 -24.757812 C 9.503906 -24.460938 9.28125 -23.234375 9.464844 -22.902344 C 9.539062 -22.605469 9.355469 -22.492188 9.6875 -22.457031 C 10.429688 -22.457031 11.691406 -23.679688 12.433594 -23.828125 C 12.695312 -23.867188 12.953125 -24.386719 13.175781 -24.238281 C 13.214844 -24.199219 13.4375 -24.347656 13.511719 -24.347656 C 13.621094 -24.421875 13.734375 -24.496094 13.769531 -24.644531 C 13.769531 -25.425781 13.769531 -25.089844 13.734375 -25.832031 C 13.734375 -26.351562 13.695312 -26.875 13.808594 -27.394531 C 13.917969 -28.0625 13.84375 -28.617188 13.546875 -29.25 C 13.214844 -29.878906 13.214844 -30.546875 12.65625 -30.957031 C 11.730469 -31.625 10.691406 -32.105469 9.539062 -32.21875 C 9.132812 -32.253906 8.722656 -32.292969 8.3125 -32.292969 C 8.277344 -32.105469 8.277344 -31.921875 8.425781 -31.734375 C 8.238281 -30.734375 8.351562 -29.695312 8.351562 -28.65625 C 8.351562 -28.394531 8.351562 -28.136719 8.3125 -27.914062 Z M 8.460938 -27.914062 "/></g></g></g><g fill="#ffffff" fill-opacity="1"><g transform="translate(59.313432, 43.93914)"><g><path d="M 5.492188 -31.921875 C 5.195312 -31.734375 4.824219 -31.996094 4.492188 -31.847656 C 4.378906 -31.773438 4.15625 -31.773438 4.007812 -31.808594 C 3.378906 -32.070312 2.746094 -31.882812 2.152344 -31.996094 C 2.042969 -32.03125 1.929688 -31.957031 1.855469 -31.921875 C 1.707031 -31.511719 1.707031 -31.066406 1.820312 -30.695312 C 1.929688 -30.289062 1.894531 -29.917969 1.929688 -29.546875 C 1.929688 -29.175781 1.894531 -28.765625 1.929688 -28.394531 C 1.929688 -28.246094 2.003906 -28.0625 2.078125 -27.875 C 1.929688 -27.691406 1.96875 -27.46875 1.96875 -27.207031 L 1.96875 -25.535156 C 1.96875 -24.792969 2.003906 -24.015625 1.746094 -23.273438 C 1.96875 -22.308594 2.042969 -20.785156 1.820312 -19.078125 C 1.484375 -18.929688 1.113281 -19.042969 0.78125 -18.96875 C 0.59375 -18.820312 0.410156 -18.671875 0.296875 -18.410156 C 0.410156 -17.816406 0.59375 -17.148438 0.667969 -16.515625 C 0.742188 -15.8125 0.890625 -15.144531 0.964844 -14.585938 C 1.300781 -14.289062 1.707031 -14.585938 1.894531 -14.253906 C 1.929688 -11.542969 1.96875 -8.835938 1.96875 -6.125 C 1.96875 -5.789062 2.191406 -5.457031 2.003906 -5.121094 C 1.855469 -4.824219 2.152344 -4.601562 2.042969 -4.304688 C 1.929688 -4.046875 1.96875 -3.75 1.929688 -3.488281 L 1.929688 -2.636719 C 1.929688 -2.042969 1.96875 -1.410156 1.929688 -0.78125 C 1.929688 -0.59375 1.894531 -0.445312 2.003906 -0.296875 C 2.226562 0 2.5625 -0.0390625 2.894531 0 C 3.304688 0.0390625 3.710938 -0.0742188 4.121094 0.0742188 C 4.527344 -0.113281 4.9375 0.113281 5.34375 0.148438 C 5.640625 0.148438 5.902344 0.0390625 6.273438 0 C 6.308594 0.0390625 6.382812 0.0742188 6.457031 0.0742188 L 6.457031 -1.96875 C 6.308594 -2.265625 6.421875 -7.609375 6.421875 -7.609375 C 6.421875 -8.277344 6.496094 -9.613281 6.496094 -10.839844 L 6.382812 -11.246094 C 6.421875 -11.46875 6.457031 -11.65625 6.457031 -11.878906 C 6.457031 -12.210938 6.457031 -12.507812 6.421875 -12.730469 C 6.273438 -13.917969 6.347656 -15.144531 6.347656 -16.367188 C 6.347656 -16.515625 6.421875 -16.664062 6.421875 -16.777344 C 6.382812 -17.519531 6.570312 -18.113281 6.457031 -18.746094 C 6.347656 -19.859375 6.308594 -20.230469 6.382812 -21.195312 C 6.421875 -21.640625 6.421875 -22.046875 6.382812 -22.457031 C 6.421875 -22.9375 6.457031 -23.570312 6.457031 -24.050781 L 6.457031 -24.71875 L 6.382812 -25.238281 L 6.382812 -25.351562 C 6.382812 -25.460938 6.421875 -25.535156 6.421875 -25.648438 C 6.382812 -26.390625 6.308594 -27.097656 6.308594 -27.875 C 6.308594 -27.988281 6.308594 -28.171875 6.347656 -28.246094 C 6.457031 -28.542969 6.308594 -28.804688 6.382812 -29.175781 C 6.457031 -29.472656 6.199219 -29.84375 6.347656 -30.289062 C 6.382812 -30.4375 6.347656 -31.066406 6.347656 -31.253906 L 6.347656 -31.808594 C 6.050781 -31.808594 5.789062 -31.847656 5.492188 -31.921875 Z M 10.394531 0 C 10.691406 0 11.023438 0.0390625 11.359375 -0.148438 C 11.394531 -0.222656 11.46875 -0.335938 11.507812 -0.484375 C 11.542969 -0.890625 11.542969 -1.300781 11.542969 -1.707031 C 11.542969 -2.5625 11.542969 -3.378906 11.617188 -4.195312 C 11.507812 -4.378906 11.617188 -4.640625 11.394531 -4.789062 C 10.394531 -4.75 9.316406 -4.9375 8.3125 -4.640625 C 8.089844 -4.675781 7.832031 -4.789062 7.609375 -4.789062 C 7.570312 -3.933594 7.496094 -3.042969 7.535156 -2.191406 L 7.535156 0.148438 C 8.460938 -0.0390625 9.390625 -0.0742188 10.394531 0 Z M 10.800781 -31.957031 C 10.542969 -31.882812 10.320312 -31.773438 10.097656 -31.808594 C 9.242188 -31.847656 8.386719 -31.773438 7.535156 -31.773438 C 7.496094 -31.625 7.460938 -31.4375 7.460938 -31.289062 C 7.570312 -31.179688 7.535156 -30.917969 7.609375 -30.695312 L 7.71875 -30.027344 L 7.609375 -29.359375 C 7.609375 -28.914062 7.644531 -28.433594 7.570312 -28.023438 C 7.535156 -27.875 7.535156 -27.691406 7.535156 -27.542969 C 7.71875 -27.542969 7.867188 -27.46875 8.015625 -27.429688 C 8.164062 -27.503906 8.3125 -27.578125 8.425781 -27.578125 C 8.648438 -27.617188 8.835938 -27.617188 9.058594 -27.617188 C 9.761719 -27.578125 10.429688 -27.726562 11.097656 -27.914062 C 11.246094 -28.953125 11.0625 -29.953125 11.136719 -30.957031 C 11.171875 -31.140625 11.136719 -31.363281 11.136719 -31.585938 C 11.097656 -31.699219 11.023438 -31.808594 10.800781 -31.957031 Z M 10.246094 -14.550781 C 10.394531 -14.550781 10.503906 -14.625 10.542969 -14.734375 L 10.542969 -15.589844 C 10.542969 -15.847656 10.578125 -16.144531 10.542969 -16.40625 C 10.542969 -16.664062 10.394531 -16.925781 10.503906 -17.183594 C 10.320312 -17.480469 10.652344 -17.742188 10.503906 -18.003906 C 10.355469 -18.261719 10.691406 -18.523438 10.429688 -18.820312 C 10.320312 -18.96875 10.132812 -19.042969 9.910156 -19.042969 L 8.910156 -18.929688 C 8.535156 -18.855469 8.089844 -18.820312 7.570312 -18.855469 C 7.609375 -17.59375 7.683594 -16.367188 7.757812 -16.109375 C 7.757812 -15.960938 7.71875 -15.292969 7.683594 -14.4375 Z M 10.246094 -14.550781 "/></g></g></g><g fill="#ffffff" fill-opacity="1"><g transform="translate(101.295454, 43.93914)"><g><path d="M 10.171875 -19.152344 L 9.875 -18.671875 C 9.6875 -18.484375 9.503906 -18.375 9.242188 -18.335938 C 8.984375 -18.300781 8.683594 -18.300781 8.425781 -18.300781 L 8.089844 -18.300781 C 8.089844 -17.816406 8.203125 -17.332031 8.164062 -16.777344 C 8.164062 -16.664062 8.089844 -16.332031 8.089844 -16.183594 C 8.089844 -15.105469 8.203125 -14.289062 8.128906 -13.25 C 8.609375 -12.769531 8.722656 -12.285156 8.835938 -11.691406 C 8.910156 -10.949219 9.207031 -9.910156 9.09375 -9.132812 C 9.09375 -9.019531 9.09375 -8.910156 9.132812 -8.835938 C 9.429688 -8.054688 9.316406 -7.238281 9.464844 -6.457031 C 9.613281 -5.566406 9.539062 -4.601562 9.726562 -3.675781 C 9.835938 -3.042969 9.949219 -2.414062 10.132812 -1.78125 C 10.28125 -1.226562 10.542969 -0.78125 11.097656 -0.484375 C 11.359375 -0.335938 11.582031 -0.113281 11.878906 0 C 12.992188 -0.1875 14.105469 -0.148438 15.21875 -0.1875 C 15.441406 -0.1875 15.699219 -0.113281 15.921875 -0.261719 C 15.996094 -0.296875 16.070312 -0.371094 16.144531 -0.445312 C 16.183594 -0.78125 16.183594 -1.078125 16.109375 -1.300781 L 14.996094 -2.449219 L 14.363281 -4.304688 C 14.328125 -4.789062 14.363281 -5.234375 14.253906 -5.605469 C 14.179688 -5.902344 14.179688 -6.160156 14.179688 -6.421875 C 14.179688 -6.679688 14.140625 -6.941406 14.066406 -7.199219 C 13.808594 -7.867188 13.84375 -8.5 13.992188 -9.242188 C 13.84375 -9.429688 13.84375 -9.652344 13.882812 -9.875 C 13.882812 -10.246094 13.769531 -10.617188 13.84375 -10.988281 C 13.882812 -11.359375 13.734375 -11.730469 13.621094 -12.101562 L 13.472656 -12.917969 C 13.324219 -13.917969 12.878906 -14.699219 11.804688 -15.070312 C 12.027344 -15.179688 12.175781 -15.292969 12.324219 -15.328125 C 13.882812 -15.921875 14.660156 -17.109375 14.847656 -18.707031 C 14.957031 -19.5625 14.957031 -20.414062 14.808594 -21.304688 C 14.773438 -21.492188 14.734375 -21.714844 14.734375 -21.898438 C 14.773438 -22.269531 14.773438 -22.605469 14.699219 -22.9375 C 14.660156 -23.160156 14.699219 -23.421875 14.699219 -23.644531 L 14.699219 -28.285156 L 13.992188 -29.917969 C 13.84375 -30.066406 13.695312 -30.140625 13.585938 -30.289062 C 12.992188 -31.140625 12.136719 -31.402344 11.171875 -31.511719 C 10.988281 -31.511719 10.800781 -31.511719 10.652344 -31.550781 C 10.207031 -31.734375 9.761719 -31.699219 9.316406 -31.699219 C 8.945312 -31.699219 8.574219 -31.660156 8.203125 -31.699219 L 8.238281 -31.253906 C 8.238281 -31.066406 8.203125 -30.4375 8.238281 -30.289062 C 8.386719 -29.84375 8.128906 -29.472656 8.203125 -29.175781 C 8.277344 -28.804688 8.128906 -28.542969 8.238281 -28.246094 C 8.277344 -28.171875 8.277344 -27.988281 8.277344 -27.875 C 8.277344 -27.691406 8.238281 -27.503906 8.238281 -27.320312 L 9.28125 -27.320312 L 9.800781 -27.023438 L 10.097656 -26.539062 C 10.132812 -26.425781 10.132812 -26.316406 10.132812 -26.203125 C 10.171875 -25.796875 10.097656 -25.386719 10.320312 -24.980469 L 10.320312 -24.792969 C 10.320312 -23.644531 10.429688 -22.492188 10.207031 -21.378906 C 10.132812 -21.007812 10.28125 -20.636719 10.171875 -20.265625 C 10.097656 -19.933594 10.171875 -19.5625 10.171875 -19.152344 Z M 2.894531 -31.847656 C 2.820312 -31.847656 2.746094 -31.808594 2.671875 -31.773438 L 2.414062 -31.066406 C 2.523438 -30.066406 2.636719 -29.101562 2.5625 -28.171875 C 2.488281 -27.171875 2.785156 -26.167969 2.449219 -25.203125 C 2.671875 -24.71875 2.449219 -24.164062 2.746094 -23.753906 C 2.710938 -23.53125 2.636719 -23.382812 2.597656 -23.199219 C 2.5625 -22.714844 2.523438 -22.234375 2.449219 -21.75 C 2.375 -21.34375 2.449219 -20.972656 2.5625 -20.453125 C 2.597656 -20.304688 2.597656 -20.117188 2.5625 -19.933594 C 2.523438 -19.488281 2.5625 -19.042969 2.5625 -18.597656 C 2.5625 -18.558594 2.523438 -18.484375 2.488281 -18.410156 C 2.226562 -18.300781 1.929688 -18.375 1.671875 -18.335938 L 0.816406 -18.335938 C 0.59375 -18.300781 0.410156 -18.226562 0.296875 -17.964844 C 0.558594 -17.40625 0.445312 -16.777344 0.632812 -16.183594 C 0.816406 -15.589844 0.964844 -14.996094 0.964844 -14.363281 C 1.078125 -14.179688 1.152344 -13.992188 1.1875 -13.882812 C 1.597656 -13.511719 2.003906 -13.734375 2.300781 -13.660156 C 2.449219 -13.472656 2.414062 -13.289062 2.414062 -13.101562 C 2.414062 -11.953125 2.375 -10.800781 2.414062 -9.6875 C 2.449219 -8.5 2.117188 -7.347656 2.339844 -6.160156 C 2.375 -6.125 2.339844 -6.050781 2.300781 -5.976562 C 2.191406 -5.789062 2.265625 -5.566406 2.265625 -5.382812 C 2.339844 -4.378906 2.339844 -3.378906 2.375 -2.414062 L 2.449219 -0.335938 C 2.636719 0 2.859375 0.113281 3.082031 0.1875 C 3.710938 0.0390625 5.269531 -0.0390625 6.085938 0.0390625 C 6.382812 -0.113281 6.792969 0.0742188 7.050781 -0.148438 L 7.050781 -1.078125 C 6.976562 -1.707031 6.976562 -2.375 7.050781 -2.96875 C 7.050781 -4.082031 6.902344 -5.234375 6.902344 -6.382812 C 6.902344 -7.421875 7.015625 -8.460938 6.828125 -9.464844 C 7.089844 -9.800781 6.828125 -10.132812 6.902344 -10.46875 C 7.015625 -10.839844 6.828125 -15.699219 6.828125 -16.109375 C 6.941406 -16.515625 6.976562 -18.894531 7.015625 -20.527344 L 7.015625 -22.9375 L 6.941406 -23.085938 C 6.941406 -23.160156 6.976562 -23.273438 7.015625 -23.382812 C 7.015625 -24.089844 6.976562 -24.832031 6.976562 -25.535156 L 6.976562 -25.90625 C 6.976562 -25.90625 6.941406 -25.945312 6.941406 -25.980469 C 6.828125 -26.167969 6.941406 -26.425781 6.941406 -26.652344 L 6.828125 -26.984375 L 6.941406 -27.171875 C 7.015625 -27.429688 7.089844 -27.726562 7.015625 -28.023438 C 6.941406 -28.433594 6.976562 -28.914062 6.976562 -29.359375 L 6.867188 -30.027344 L 6.976562 -30.695312 C 7.050781 -30.917969 7.015625 -31.179688 7.125 -31.289062 C 7.089844 -31.476562 7.050781 -31.660156 7.050781 -31.847656 C 5.640625 -31.957031 4.269531 -31.921875 2.894531 -31.847656 Z M 2.894531 -31.847656 "/></g></g></g><g fill="#ffffff" fill-opacity="1"><g transform="translate(147.470981, 43.93914)"><g><path d="M 7.867188 -6.273438 C 8.128906 -6.308594 8.460938 -6.308594 8.757812 -6.308594 C 9.09375 -6.308594 9.242188 -6.273438 9.578125 -6.347656 C 9.800781 -6.421875 10.097656 -6.308594 10.355469 -6.308594 C 10.429688 -6.308594 10.429688 -6.234375 10.503906 -6.160156 C 10.617188 -6.050781 10.652344 -5.863281 10.652344 -5.753906 C 10.617188 -5.046875 10.988281 -4.417969 11.0625 -3.75 C 11.0625 -3.265625 11.210938 -2.820312 11.320312 -2.375 C 11.46875 -1.671875 11.46875 -0.855469 11.839844 -0.1875 C 11.914062 -0.0742188 11.839844 0.113281 12.0625 0.0742188 C 12.210938 0.0742188 12.324219 0.1875 12.472656 0.113281 C 12.621094 0 12.84375 -0.0742188 12.992188 -0.0742188 C 13.324219 -0.113281 13.660156 -0.113281 13.957031 -0.0742188 C 14.289062 0 14.660156 -0.148438 15.03125 0 C 15.21875 0.113281 15.550781 0.148438 15.773438 -0.113281 C 15.847656 -0.222656 16.035156 -0.261719 16.183594 -0.296875 C 15.886719 -1.1875 15.738281 -2.117188 15.589844 -3.007812 C 15.441406 -3.675781 15.253906 -4.34375 15.144531 -5.011719 C 14.996094 -6.011719 14.847656 -6.976562 14.734375 -7.941406 C 14.585938 -8.910156 14.660156 -9.875 14.363281 -10.800781 C 14.328125 -10.875 14.289062 -10.988281 14.328125 -11.097656 C 14.328125 -11.765625 13.992188 -12.136719 14.066406 -13.175781 C 14.105469 -13.546875 13.84375 -13.769531 13.808594 -14.140625 L 13.4375 -16.664062 C 13.363281 -17.109375 13.214844 -17.59375 13.25 -18.078125 C 13.289062 -18.1875 13.214844 -18.261719 13.214844 -18.335938 C 13.066406 -19.191406 12.804688 -20.007812 12.695312 -20.898438 C 12.621094 -21.417969 12.582031 -21.972656 12.472656 -22.492188 L 11.765625 -25.535156 C 11.65625 -26.167969 11.765625 -26.800781 11.691406 -27.429688 C 11.691406 -27.617188 11.582031 -27.765625 11.582031 -27.949219 C 11.582031 -28.542969 11.394531 -29.101562 11.285156 -29.695312 C 11.171875 -30.175781 10.839844 -30.808594 10.839844 -31.328125 C 10.839844 -31.476562 10.839844 -31.585938 10.652344 -31.660156 C 10.46875 -31.699219 10.320312 -31.847656 10.132812 -31.808594 C 9.652344 -31.773438 9.207031 -31.957031 8.722656 -31.847656 C 8.648438 -31.808594 8.574219 -31.808594 8.460938 -31.847656 C 8.128906 -31.957031 7.757812 -31.882812 7.386719 -31.957031 C 7.460938 -31.550781 7.570312 -31.140625 7.609375 -30.695312 C 7.609375 -30.585938 7.683594 -30.4375 7.71875 -30.289062 C 7.832031 -29.0625 8.054688 -27.839844 8.015625 -26.652344 C 7.980469 -25.5 8.460938 -22.679688 8.574219 -21.566406 C 8.574219 -21.566406 9.242188 -16.257812 9.132812 -15.960938 L 9.390625 -13.546875 L 9.390625 -13.398438 L 9.503906 -12.324219 C 9.613281 -11.878906 9.613281 -11.433594 9.613281 -11.023438 C 9.578125 -10.839844 9.761719 -10.765625 9.761719 -10.578125 C 9.132812 -10.652344 8.460938 -10.652344 7.832031 -10.617188 C 7.757812 -10.320312 7.609375 -10.097656 7.644531 -9.910156 C 7.644531 -9.539062 7.460938 -9.28125 7.535156 -8.984375 C 7.570312 -8.910156 7.535156 -8.722656 7.535156 -8.609375 L 7.089844 -6.308594 C 7.3125 -6.273438 7.535156 -6.234375 7.867188 -6.273438 Z M 6.644531 -11.839844 C 6.679688 -12.398438 6.792969 -12.917969 6.902344 -13.472656 C 6.941406 -14.03125 7.015625 -14.585938 7.164062 -15.179688 C 7.164062 -15.292969 7.164062 -15.441406 7.273438 -15.441406 C 7.3125 -15.847656 7.347656 -16.292969 7.496094 -16.738281 C 7.644531 -17.257812 7.496094 -17.628906 7.757812 -18.113281 C 7.609375 -18.820312 7.496094 -19.488281 7.421875 -20.230469 C 7.3125 -21.230469 7.3125 -22.308594 7.050781 -23.273438 C 7.273438 -23.644531 6.976562 -23.941406 7.015625 -24.273438 C 7.089844 -24.644531 6.382812 -29.472656 6.347656 -29.878906 C 6.382812 -30.101562 6.347656 -30.917969 6.273438 -31.847656 C 6.050781 -31.699219 5.902344 -31.402344 5.863281 -31.140625 C 5.753906 -30.546875 5.605469 -29.878906 5.382812 -29.0625 C 5.308594 -28.765625 5.195312 -28.46875 5.195312 -28.136719 C 5.234375 -27.503906 5.046875 -26.910156 4.9375 -26.277344 C 4.898438 -25.757812 4.714844 -25.277344 4.640625 -24.792969 C 4.601562 -24.460938 4.601562 -24.125 4.492188 -23.792969 C 4.34375 -23.234375 4.269531 -22.640625 4.378906 -22.085938 C 4.453125 -21.601562 4.121094 -21.675781 3.859375 -20.636719 C 3.675781 -19.859375 3.5625 -19.078125 3.453125 -18.300781 C 3.414062 -18.039062 3.304688 -17.816406 3.339844 -17.59375 C 3.378906 -17.296875 3.304688 -17.035156 3.265625 -16.777344 C 3.191406 -16.515625 3.117188 -16.257812 3.15625 -15.960938 C 3.15625 -15.699219 3.042969 -15.441406 2.96875 -15.21875 C 2.820312 -14.4375 2.671875 -13.660156 2.597656 -12.917969 L 2.523438 -11.878906 L 2.265625 -10.914062 C 2.265625 -10.800781 2.226562 -10.691406 2.226562 -10.578125 C 1.894531 -10.578125 1.523438 -10.542969 1.152344 -10.542969 C 0.929688 -10.503906 -0.0390625 -10.652344 -0.1875 -10.429688 C -0.1875 -10.28125 -0.148438 -9.726562 -0.0742188 -9.539062 C 0.113281 -9.058594 0.222656 -8.796875 0.1875 -8.3125 C 0.148438 -7.792969 0.445312 -7.3125 0.519531 -6.792969 C 0.558594 -6.71875 0.59375 -6.605469 0.59375 -6.605469 C 0.632812 -6.125 1.375 -6.199219 1.746094 -6.234375 C 1.671875 -5.753906 1.597656 -5.269531 1.558594 -4.789062 L 1.003906 -1.410156 L 0.816406 -0.632812 C 0.816406 -0.445312 0.667969 -0.1875 0.707031 -0.0390625 C 0.742188 0.113281 0.929688 0.113281 1.152344 0.0742188 C 1.707031 -0.0390625 1.707031 0.0742188 2.191406 0.0742188 C 2.339844 0 2.523438 0.148438 3.453125 0.0742188 C 3.75 0.0390625 4.046875 -0.0390625 4.34375 0.148438 C 4.492188 0 4.714844 0.148438 4.863281 -0.0390625 C 4.9375 -0.148438 5.011719 -0.261719 5.046875 -0.371094 C 5.269531 -1.746094 5.457031 -3.042969 5.457031 -3.042969 C 5.566406 -3.414062 5.679688 -3.75 5.53125 -4.082031 C 5.605469 -4.34375 5.714844 -4.601562 5.753906 -4.898438 C 5.789062 -5.085938 5.902344 -5.308594 5.863281 -5.566406 C 5.789062 -5.828125 5.976562 -6.011719 5.902344 -6.273438 C 5.863281 -6.496094 6.050781 -6.679688 5.9375 -6.941406 C 5.863281 -7.125 6.011719 -7.421875 6.011719 -7.644531 C 6.011719 -8.089844 6.347656 -8.5 6.308594 -8.945312 C 6.273438 -9.355469 6.382812 -9.835938 6.457031 -10.28125 L 6.421875 -10.949219 L 6.570312 -11.394531 Z M 6.644531 -11.839844 "/></g></g></g><g fill="#ffffff" fill-opacity="1"><g transform="translate(193.498067, 43.93914)"><g><path d="M 8.351562 0 C 9.464844 0.0390625 10.503906 -0.0390625 11.46875 -0.484375 C 12.546875 -1.375 13.4375 -2.339844 13.917969 -3.675781 L 13.917969 -9.464844 C 13.917969 -10.132812 13.957031 -10.839844 13.917969 -11.542969 C 13.917969 -12.136719 13.957031 -12.730469 13.660156 -13.363281 C 13.917969 -13.695312 13.882812 -14.179688 13.882812 -14.625 L 13.882812 -18.671875 C 13.917969 -19.746094 13.917969 -20.785156 13.917969 -21.824219 C 13.917969 -22.566406 13.84375 -23.347656 13.882812 -24.125 C 13.917969 -24.867188 13.546875 -25.609375 13.84375 -26.351562 C 13.621094 -27.171875 13.769531 -28.023438 13.695312 -28.878906 L 13.027344 -30.140625 C 12.917969 -30.324219 12.769531 -30.472656 12.621094 -30.621094 C 11.914062 -31.179688 11.136719 -31.625 10.28125 -31.882812 C 9.761719 -32.070312 9.207031 -32.292969 8.648438 -32.144531 C 8.203125 -31.996094 7.792969 -31.996094 7.347656 -31.996094 C 7.347656 -31.734375 7.3125 -31.511719 7.273438 -31.289062 C 7.386719 -31.179688 7.347656 -30.917969 7.421875 -30.695312 L 7.535156 -30.027344 L 7.421875 -29.359375 C 7.421875 -28.914062 7.460938 -28.433594 7.386719 -28.023438 C 7.3125 -27.800781 7.347656 -27.617188 7.386719 -27.429688 C 7.609375 -27.394531 7.867188 -27.394531 8.128906 -27.394531 C 8.757812 -26.984375 8.984375 -26.425781 9.09375 -25.722656 C 9.355469 -24.347656 9.28125 -22.976562 9.316406 -21.566406 C 9.355469 -21.230469 9.28125 -20.898438 9.429688 -20.601562 C 9.390625 -20.265625 9.316406 -19.933594 9.355469 -19.636719 C 9.355469 -18.78125 9.28125 -17.929688 9.464844 -17.074219 C 9.578125 -16.664062 9.503906 -16.21875 9.503906 -15.8125 C 9.503906 -14.328125 9.539062 -12.84375 9.539062 -11.320312 C 9.539062 -9.949219 9.503906 -8.574219 9.539062 -7.164062 C 9.539062 -6.71875 9.390625 -6.273438 9.28125 -5.863281 C 9.167969 -5.382812 8.835938 -4.972656 8.425781 -4.714844 C 7.90625 -4.527344 7.644531 -4.417969 7.386719 -4.378906 C 7.347656 -3.636719 7.3125 -2.933594 7.347656 -2.191406 L 7.347656 -0.0390625 C 7.683594 -0.0390625 8.015625 0 8.351562 0 Z M 1.261719 -31.550781 C 1.523438 -30.140625 1.261719 -28.804688 1.484375 -27.429688 C 1.226562 -26.835938 1.523438 -26.167969 1.449219 -25.460938 C 1.375 -25.054688 1.558594 -24.609375 1.671875 -24.089844 C 1.558594 -23.570312 1.484375 -21.9375 1.597656 -21.269531 C 1.707031 -20.785156 1.78125 -20.265625 1.558594 -19.785156 C 1.523438 -19.671875 1.558594 -19.523438 1.558594 -19.375 C 1.558594 -17.074219 1.597656 -14.773438 1.597656 -12.472656 C 1.597656 -12.210938 1.558594 -11.914062 1.632812 -11.65625 C 1.78125 -11.246094 1.746094 -10.839844 1.746094 -10.429688 C 1.78125 -9.6875 1.78125 -8.945312 1.78125 -8.238281 L 1.78125 -0.632812 L 2.117188 0.148438 L 2.746094 0 L 4.304688 0 C 4.9375 -0.0390625 5.605469 -0.0390625 6.273438 -0.0390625 L 6.273438 -1.96875 C 6.199219 -2.078125 6.199219 -3.339844 6.199219 -4.566406 C 6.160156 -4.640625 6.199219 -4.789062 6.199219 -4.898438 C 6.160156 -5.640625 6.160156 -6.382812 6.160156 -7.089844 C 6.125 -7.570312 6.199219 -8.054688 6.011719 -8.535156 C 5.976562 -8.648438 6.011719 -8.835938 5.976562 -8.945312 C 5.902344 -9.28125 6.160156 -9.613281 6.011719 -9.984375 C 5.902344 -10.28125 6.011719 -10.578125 6.125 -10.875 C 6.160156 -10.949219 6.125 -11.023438 6.160156 -11.097656 C 6.199219 -11.65625 6.050781 -12.25 6.160156 -12.84375 C 6.160156 -12.917969 6.199219 -12.992188 6.199219 -13.066406 C 6.085938 -14.140625 6.160156 -15.253906 6.160156 -16.367188 C 6.160156 -16.554688 6.125 -16.777344 6.050781 -16.960938 L 5.976562 -17.371094 C 5.9375 -17.816406 6.085938 -18.261719 6.011719 -18.707031 C 5.9375 -19.117188 5.976562 -19.5625 5.976562 -19.96875 C 6.011719 -20.230469 6.125 -20.527344 6.085938 -20.785156 C 6.011719 -21.046875 5.976562 -21.304688 5.976562 -21.601562 C 5.976562 -22.828125 5.976562 -24.015625 6.011719 -25.238281 C 6.011719 -25.609375 6.125 -25.980469 6.160156 -26.351562 L 6.160156 -26.464844 C 6.160156 -26.910156 6.125 -27.394531 6.125 -27.875 C 6.125 -27.988281 6.125 -28.171875 6.160156 -28.246094 C 6.273438 -28.542969 6.125 -28.804688 6.199219 -29.175781 C 6.273438 -29.472656 6.011719 -29.84375 6.160156 -30.289062 C 6.199219 -30.4375 6.160156 -31.066406 6.160156 -31.253906 L 6.199219 -32.105469 C 5.976562 -32.105469 5.789062 -32.070312 5.605469 -31.996094 C 4.675781 -32.070312 3.75 -31.996094 2.820312 -32.070312 C 2.414062 -32.105469 2.003906 -32.179688 1.558594 -31.921875 Z M 1.261719 -31.550781 "/></g></g></g><g fill="#ffffff" fill-opacity="1"><g transform="translate(238.411827, 43.93914)"><g><path d="M 9.132812 -4.34375 L 8.757812 -3.933594 C 8.5 -3.859375 8.238281 -3.933594 8.015625 -3.859375 C 7.980469 -3.304688 7.980469 -2.746094 8.015625 -2.191406 L 8.015625 0.371094 C 8.683594 0.335938 9.316406 0.222656 9.984375 0.113281 C 10.542969 -0.1875 11.171875 -0.222656 11.691406 -0.59375 C 12.175781 -0.964844 12.546875 -1.410156 12.953125 -1.820312 C 13.214844 -2.042969 13.363281 -2.671875 13.472656 -2.859375 C 13.660156 -3.898438 13.808594 -4.824219 13.769531 -5.753906 C 13.734375 -6.644531 13.734375 -7.496094 13.734375 -8.351562 C 13.734375 -8.609375 13.808594 -8.871094 13.734375 -9.09375 C 13.546875 -9.652344 13.585938 -10.207031 13.585938 -10.726562 C 13.546875 -11.171875 13.546875 -11.582031 13.546875 -11.988281 C 13.546875 -12.730469 13.546875 -13.472656 13.621094 -14.179688 C 13.734375 -15.253906 13.769531 -16.441406 13.660156 -17.480469 C 13.660156 -17.816406 13.660156 -18.152344 13.695312 -18.484375 C 13.734375 -19.078125 13.808594 -19.671875 13.695312 -20.230469 C 13.546875 -20.933594 13.546875 -21.601562 13.511719 -22.308594 C 13.511719 -22.789062 13.546875 -23.273438 13.546875 -23.753906 L 13.546875 -25.128906 C 13.511719 -25.609375 13.621094 -26.09375 13.398438 -26.578125 C 13.660156 -27.058594 13.363281 -27.503906 13.398438 -27.988281 C 13.398438 -28.136719 13.101562 -29.398438 12.804688 -29.84375 C 12.398438 -30.066406 12.101562 -30.4375 11.839844 -30.808594 C 11.359375 -31.03125 10.949219 -31.253906 10.578125 -31.625 L 9.835938 -31.921875 C 9.207031 -32.144531 8.609375 -32.292969 8.054688 -32.367188 C 8.054688 -31.996094 7.980469 -31.660156 7.941406 -31.289062 C 8.054688 -31.179688 8.015625 -30.917969 8.089844 -30.695312 L 8.203125 -30.027344 L 8.089844 -29.359375 C 8.089844 -28.953125 8.128906 -28.542969 8.089844 -28.171875 C 8.164062 -28.171875 8.238281 -28.136719 8.351562 -28.136719 C 8.609375 -28.023438 8.796875 -27.875 8.945312 -27.691406 C 8.945312 -27.617188 8.984375 -27.542969 8.984375 -27.46875 C 8.984375 -26.875 9.09375 -26.316406 8.984375 -25.722656 C 8.984375 -25.574219 8.945312 -25.351562 9.019531 -25.203125 C 9.207031 -24.792969 9.132812 -24.386719 9.132812 -23.976562 C 9.167969 -23.496094 9.09375 -22.976562 9.207031 -22.53125 C 9.316406 -22.046875 9.09375 -21.675781 9.132812 -21.230469 C 9.207031 -20.675781 9.167969 -20.117188 9.019531 -19.5625 C 8.910156 -19.117188 8.910156 -18.597656 9.019531 -18.113281 C 9.167969 -17.667969 9.132812 -17.222656 9.167969 -16.777344 C 9.207031 -16.332031 9.132812 -15.886719 9.355469 -15.441406 C 9.355469 -14.699219 9.429688 -13.917969 9.28125 -13.175781 C 9.28125 -13.066406 9.242188 -12.953125 9.242188 -12.878906 C 9.464844 -11.953125 9.316406 -11.023438 9.355469 -10.058594 C 9.355469 -9.984375 9.390625 -9.875 9.355469 -9.761719 C 9.09375 -8.648438 9.242188 -7.496094 9.207031 -6.347656 C 9.207031 -5.714844 9.167969 -5.085938 9.132812 -4.34375 Z M 5.976562 -32.179688 C 5.679688 -32.105469 5.417969 -32.105469 5.121094 -32.070312 L 3.5625 -31.289062 C 2.96875 -30.660156 2.523438 -30.175781 2.042969 -29.730469 C 1.820312 -29.285156 1.746094 -29.136719 1.449219 -28.730469 C 1.484375 -28.542969 1.375 -28.0625 1.410156 -27.914062 C 1.226562 -27.429688 1.226562 -26.984375 1.335938 -26.503906 C 1.375 -26.09375 1.410156 -25.683594 1.410156 -25.277344 C 1.449219 -22.789062 1.449219 -20.339844 1.449219 -17.855469 L 1.449219 -16.628906 C 1.484375 -16.183594 1.449219 -15.773438 1.449219 -15.367188 C 1.449219 -14.921875 1.410156 -14.4375 1.484375 -13.992188 C 1.558594 -13.585938 1.449219 -13.214844 1.449219 -12.804688 C 1.449219 -12.027344 1.523438 -11.246094 1.300781 -10.503906 C 1.226562 -10.355469 1.261719 -10.171875 1.261719 -9.984375 L 1.484375 -3.5625 C 1.820312 -2.820312 2.003906 -2.042969 2.597656 -1.449219 C 3.785156 -0.519531 5.121094 0.148438 6.570312 0.335938 C 6.679688 0.335938 6.792969 0.335938 6.941406 0.371094 L 6.941406 -1.96875 C 6.867188 -2.078125 6.867188 -2.96875 6.867188 -3.972656 C 6.496094 -4.046875 6.199219 -4.230469 5.863281 -4.453125 C 5.714844 -4.675781 5.828125 -5.046875 5.828125 -5.382812 L 5.828125 -11.023438 C 5.828125 -11.394531 5.863281 -11.765625 5.679688 -12.136719 C 5.640625 -12.25 5.605469 -12.433594 5.640625 -12.546875 C 5.753906 -12.992188 5.605469 -13.4375 5.640625 -13.882812 C 5.679688 -14.289062 5.640625 -14.699219 5.640625 -15.144531 C 5.640625 -15.589844 5.605469 -16.035156 5.605469 -16.480469 C 5.605469 -18.558594 5.640625 -20.675781 5.640625 -22.753906 C 5.640625 -22.9375 5.640625 -23.160156 5.714844 -23.347656 C 5.789062 -23.605469 5.828125 -23.828125 5.789062 -24.089844 C 5.753906 -24.90625 5.9375 -25.757812 5.679688 -26.578125 C 5.753906 -26.875 5.679688 -27.171875 5.902344 -27.542969 C 6.011719 -27.726562 6.273438 -27.914062 6.570312 -28.097656 C 6.644531 -28.097656 6.71875 -28.136719 6.792969 -28.136719 C 6.792969 -28.171875 6.792969 -28.210938 6.828125 -28.246094 C 6.941406 -28.542969 6.792969 -28.804688 6.867188 -29.175781 C 6.941406 -29.472656 6.679688 -29.84375 6.828125 -30.289062 C 6.867188 -30.4375 6.828125 -31.066406 6.828125 -31.253906 L 6.867188 -32.21875 L 6.867188 -32.328125 C 6.570312 -32.292969 6.273438 -32.253906 5.976562 -32.179688 Z M 5.976562 -32.179688 "/></g></g></g><g fill="#ffffff" fill-opacity="1"><g transform="translate(283.140024, 43.93914)"><g><path d="M 10.171875 -19.152344 L 9.875 -18.671875 C 9.6875 -18.484375 9.503906 -18.375 9.242188 -18.335938 C 8.984375 -18.300781 8.683594 -18.300781 8.425781 -18.300781 L 8.089844 -18.300781 C 8.089844 -17.816406 8.203125 -17.332031 8.164062 -16.777344 C 8.164062 -16.664062 8.089844 -16.332031 8.089844 -16.183594 C 8.089844 -15.105469 8.203125 -14.289062 8.128906 -13.25 C 8.609375 -12.769531 8.722656 -12.285156 8.835938 -11.691406 C 8.910156 -10.949219 9.207031 -9.910156 9.09375 -9.132812 C 9.09375 -9.019531 9.09375 -8.910156 9.132812 -8.835938 C 9.429688 -8.054688 9.316406 -7.238281 9.464844 -6.457031 C 9.613281 -5.566406 9.539062 -4.601562 9.726562 -3.675781 C 9.835938 -3.042969 9.949219 -2.414062 10.132812 -1.78125 C 10.28125 -1.226562 10.542969 -0.78125 11.097656 -0.484375 C 11.359375 -0.335938 11.582031 -0.113281 11.878906 0 C 12.992188 -0.1875 14.105469 -0.148438 15.21875 -0.1875 C 15.441406 -0.1875 15.699219 -0.113281 15.921875 -0.261719 C 15.996094 -0.296875 16.070312 -0.371094 16.144531 -0.445312 C 16.183594 -0.78125 16.183594 -1.078125 16.109375 -1.300781 L 14.996094 -2.449219 L 14.363281 -4.304688 C 14.328125 -4.789062 14.363281 -5.234375 14.253906 -5.605469 C 14.179688 -5.902344 14.179688 -6.160156 14.179688 -6.421875 C 14.179688 -6.679688 14.140625 -6.941406 14.066406 -7.199219 C 13.808594 -7.867188 13.84375 -8.5 13.992188 -9.242188 C 13.84375 -9.429688 13.84375 -9.652344 13.882812 -9.875 C 13.882812 -10.246094 13.769531 -10.617188 13.84375 -10.988281 C 13.882812 -11.359375 13.734375 -11.730469 13.621094 -12.101562 L 13.472656 -12.917969 C 13.324219 -13.917969 12.878906 -14.699219 11.804688 -15.070312 C 12.027344 -15.179688 12.175781 -15.292969 12.324219 -15.328125 C 13.882812 -15.921875 14.660156 -17.109375 14.847656 -18.707031 C 14.957031 -19.5625 14.957031 -20.414062 14.808594 -21.304688 C 14.773438 -21.492188 14.734375 -21.714844 14.734375 -21.898438 C 14.773438 -22.269531 14.773438 -22.605469 14.699219 -22.9375 C 14.660156 -23.160156 14.699219 -23.421875 14.699219 -23.644531 L 14.699219 -28.285156 L 13.992188 -29.917969 C 13.84375 -30.066406 13.695312 -30.140625 13.585938 -30.289062 C 12.992188 -31.140625 12.136719 -31.402344 11.171875 -31.511719 C 10.988281 -31.511719 10.800781 -31.511719 10.652344 -31.550781 C 10.207031 -31.734375 9.761719 -31.699219 9.316406 -31.699219 C 8.945312 -31.699219 8.574219 -31.660156 8.203125 -31.699219 L 8.238281 -31.253906 C 8.238281 -31.066406 8.203125 -30.4375 8.238281 -30.289062 C 8.386719 -29.84375 8.128906 -29.472656 8.203125 -29.175781 C 8.277344 -28.804688 8.128906 -28.542969 8.238281 -28.246094 C 8.277344 -28.171875 8.277344 -27.988281 8.277344 -27.875 C 8.277344 -27.691406 8.238281 -27.503906 8.238281 -27.320312 L 9.28125 -27.320312 L 9.800781 -27.023438 L 10.097656 -26.539062 C 10.132812 -26.425781 10.132812 -26.316406 10.132812 -26.203125 C 10.171875 -25.796875 10.097656 -25.386719 10.320312 -24.980469 L 10.320312 -24.792969 C 10.320312 -23.644531 10.429688 -22.492188 10.207031 -21.378906 C 10.132812 -21.007812 10.28125 -20.636719 10.171875 -20.265625 C 10.097656 -19.933594 10.171875 -19.5625 10.171875 -19.152344 Z M 2.894531 -31.847656 C 2.820312 -31.847656 2.746094 -31.808594 2.671875 -31.773438 L 2.414062 -31.066406 C 2.523438 -30.066406 2.636719 -29.101562 2.5625 -28.171875 C 2.488281 -27.171875 2.785156 -26.167969 2.449219 -25.203125 C 2.671875 -24.71875 2.449219 -24.164062 2.746094 -23.753906 C 2.710938 -23.53125 2.636719 -23.382812 2.597656 -23.199219 C 2.5625 -22.714844 2.523438 -22.234375 2.449219 -21.75 C 2.375 -21.34375 2.449219 -20.972656 2.5625 -20.453125 C 2.597656 -20.304688 2.597656 -20.117188 2.5625 -19.933594 C 2.523438 -19.488281 2.5625 -19.042969 2.5625 -18.597656 C 2.5625 -18.558594 2.523438 -18.484375 2.488281 -18.410156 C 2.226562 -18.300781 1.929688 -18.375 1.671875 -18.335938 L 0.816406 -18.335938 C 0.59375 -18.300781 0.410156 -18.226562 0.296875 -17.964844 C 0.558594 -17.40625 0.445312 -16.777344 0.632812 -16.183594 C 0.816406 -15.589844 0.964844 -14.996094 0.964844 -14.363281 C 1.078125 -14.179688 1.152344 -13.992188 1.1875 -13.882812 C 1.597656 -13.511719 2.003906 -13.734375 2.300781 -13.660156 C 2.449219 -13.472656 2.414062 -13.289062 2.414062 -13.101562 C 2.414062 -11.953125 2.375 -10.800781 2.414062 -9.6875 C 2.449219 -8.5 2.117188 -7.347656 2.339844 -6.160156 C 2.375 -6.125 2.339844 -6.050781 2.300781 -5.976562 C 2.191406 -5.789062 2.265625 -5.566406 2.265625 -5.382812 C 2.339844 -4.378906 2.339844 -3.378906 2.375 -2.414062 L 2.449219 -0.335938 C 2.636719 0 2.859375 0.113281 3.082031 0.1875 C 3.710938 0.0390625 5.269531 -0.0390625 6.085938 0.0390625 C 6.382812 -0.113281 6.792969 0.0742188 7.050781 -0.148438 L 7.050781 -1.078125 C 6.976562 -1.707031 6.976562 -2.375 7.050781 -2.96875 C 7.050781 -4.082031 6.902344 -5.234375 6.902344 -6.382812 C 6.902344 -7.421875 7.015625 -8.460938 6.828125 -9.464844 C 7.089844 -9.800781 6.828125 -10.132812 6.902344 -10.46875 C 7.015625 -10.839844 6.828125 -15.699219 6.828125 -16.109375 C 6.941406 -16.515625 6.976562 -18.894531 7.015625 -20.527344 L 7.015625 -22.9375 L 6.941406 -23.085938 C 6.941406 -23.160156 6.976562 -23.273438 7.015625 -23.382812 C 7.015625 -24.089844 6.976562 -24.832031 6.976562 -25.535156 L 6.976562 -25.90625 C 6.976562 -25.90625 6.941406 -25.945312 6.941406 -25.980469 C 6.828125 -26.167969 6.941406 -26.425781 6.941406 -26.652344 L 6.828125 -26.984375 L 6.941406 -27.171875 C 7.015625 -27.429688 7.089844 -27.726562 7.015625 -28.023438 C 6.941406 -28.433594 6.976562 -28.914062 6.976562 -29.359375 L 6.867188 -30.027344 L 6.976562 -30.695312 C 7.050781 -30.917969 7.015625 -31.179688 7.125 -31.289062 C 7.089844 -31.476562 7.050781 -31.660156 7.050781 -31.847656 C 5.640625 -31.957031 4.269531 -31.921875 2.894531 -31.847656 Z M 2.894531 -31.847656 "/></g></g></g><g fill="#ffffff" fill-opacity="1"><g transform="translate(329.315552, 43.93914)"><g/></g></g><g fill="#ffffff" fill-opacity="1"><g transform="translate(366.361857, 43.93914)"><g><path d="M 8.351562 0 C 9.464844 0.0390625 10.503906 -0.0390625 11.46875 -0.484375 C 12.546875 -1.375 13.4375 -2.339844 13.917969 -3.675781 L 13.917969 -9.464844 C 13.917969 -10.132812 13.957031 -10.839844 13.917969 -11.542969 C 13.917969 -12.136719 13.957031 -12.730469 13.660156 -13.363281 C 13.917969 -13.695312 13.882812 -14.179688 13.882812 -14.625 L 13.882812 -18.671875 C 13.917969 -19.746094 13.917969 -20.785156 13.917969 -21.824219 C 13.917969 -22.566406 13.84375 -23.347656 13.882812 -24.125 C 13.917969 -24.867188 13.546875 -25.609375 13.84375 -26.351562 C 13.621094 -27.171875 13.769531 -28.023438 13.695312 -28.878906 L 13.027344 -30.140625 C 12.917969 -30.324219 12.769531 -30.472656 12.621094 -30.621094 C 11.914062 -31.179688 11.136719 -31.625 10.28125 -31.882812 C 9.761719 -32.070312 9.207031 -32.292969 8.648438 -32.144531 C 8.203125 -31.996094 7.792969 -31.996094 7.347656 -31.996094 C 7.347656 -31.734375 7.3125 -31.511719 7.273438 -31.289062 C 7.386719 -31.179688 7.347656 -30.917969 7.421875 -30.695312 L 7.535156 -30.027344 L 7.421875 -29.359375 C 7.421875 -28.914062 7.460938 -28.433594 7.386719 -28.023438 C 7.3125 -27.800781 7.347656 -27.617188 7.386719 -27.429688 C 7.609375 -27.394531 7.867188 -27.394531 8.128906 -27.394531 C 8.757812 -26.984375 8.984375 -26.425781 9.09375 -25.722656 C 9.355469 -24.347656 9.28125 -22.976562 9.316406 -21.566406 C 9.355469 -21.230469 9.28125 -20.898438 9.429688 -20.601562 C 9.390625 -20.265625 9.316406 -19.933594 9.355469 -19.636719 C 9.355469 -18.78125 9.28125 -17.929688 9.464844 -17.074219 C 9.578125 -16.664062 9.503906 -16.21875 9.503906 -15.8125 C 9.503906 -14.328125 9.539062 -12.84375 9.539062 -11.320312 C 9.539062 -9.949219 9.503906 -8.574219 9.539062 -7.164062 C 9.539062 -6.71875 9.390625 -6.273438 9.28125 -5.863281 C 9.167969 -5.382812 8.835938 -4.972656 8.425781 -4.714844 C 7.90625 -4.527344 7.644531 -4.417969 7.386719 -4.378906 C 7.347656 -3.636719 7.3125 -2.933594 7.347656 -2.191406 L 7.347656 -0.0390625 C 7.683594 -0.0390625 8.015625 0 8.351562 0 Z M 1.261719 -31.550781 C 1.523438 -30.140625 1.261719 -28.804688 1.484375 -27.429688 C 1.226562 -26.835938 1.523438 -26.167969 1.449219 -25.460938 C 1.375 -25.054688 1.558594 -24.609375 1.671875 -24.089844 C 1.558594 -23.570312 1.484375 -21.9375 1.597656 -21.269531 C 1.707031 -20.785156 1.78125 -20.265625 1.558594 -19.785156 C 1.523438 -19.671875 1.558594 -19.523438 1.558594 -19.375 C 1.558594 -17.074219 1.597656 -14.773438 1.597656 -12.472656 C 1.597656 -12.210938 1.558594 -11.914062 1.632812 -11.65625 C 1.78125 -11.246094 1.746094 -10.839844 1.746094 -10.429688 C 1.78125 -9.6875 1.78125 -8.945312 1.78125 -8.238281 L 1.78125 -0.632812 L 2.117188 0.148438 L 2.746094 0 L 4.304688 0 C 4.9375 -0.0390625 5.605469 -0.0390625 6.273438 -0.0390625 L 6.273438 -1.96875 C 6.199219 -2.078125 6.199219 -3.339844 6.199219 -4.566406 C 6.160156 -4.640625 6.199219 -4.789062 6.199219 -4.898438 C 6.160156 -5.640625 6.160156 -6.382812 6.160156 -7.089844 C 6.125 -7.570312 6.199219 -8.054688 6.011719 -8.535156 C 5.976562 -8.648438 6.011719 -8.835938 5.976562 -8.945312 C 5.902344 -9.28125 6.160156 -9.613281 6.011719 -9.984375 C 5.902344 -10.28125 6.011719 -10.578125 6.125 -10.875 C 6.160156 -10.949219 6.125 -11.023438 6.160156 -11.097656 C 6.199219 -11.65625 6.050781 -12.25 6.160156 -12.84375 C 6.160156 -12.917969 6.199219 -12.992188 6.199219 -13.066406 C 6.085938 -14.140625 6.160156 -15.253906 6.160156 -16.367188 C 6.160156 -16.554688 6.125 -16.777344 6.050781 -16.960938 L 5.976562 -17.371094 C 5.9375 -17.816406 6.085938 -18.261719 6.011719 -18.707031 C 5.9375 -19.117188 5.976562 -19.5625 5.976562 -19.96875 C 6.011719 -20.230469 6.125 -20.527344 6.085938 -20.785156 C 6.011719 -21.046875 5.976562 -21.304688 5.976562 -21.601562 C 5.976562 -22.828125 5.976562 -24.015625 6.011719 -25.238281 C 6.011719 -25.609375 6.125 -25.980469 6.160156 -26.351562 L 6.160156 -26.464844 C 6.160156 -26.910156 6.125 -27.394531 6.125 -27.875 C 6.125 -27.988281 6.125 -28.171875 6.160156 -28.246094 C 6.273438 -28.542969 6.125 -28.804688 6.199219 -29.175781 C 6.273438 -29.472656 6.011719 -29.84375 6.160156 -30.289062 C 6.199219 -30.4375 6.160156 -31.066406 6.160156 -31.253906 L 6.199219 -32.105469 C 5.976562 -32.105469 5.789062 -32.070312 5.605469 -31.996094 C 4.675781 -32.070312 3.75 -31.996094 2.820312 -32.070312 C 2.414062 -32.105469 2.003906 -32.179688 1.558594 -31.921875 Z M 1.261719 -31.550781 "/></g></g></g><g fill="#ffffff" fill-opacity="1"><g transform="translate(411.275606, 43.93914)"><g><path d="M 5.492188 -31.921875 C 5.195312 -31.734375 4.824219 -31.996094 4.492188 -31.847656 C 4.378906 -31.773438 4.15625 -31.773438 4.007812 -31.808594 C 3.378906 -32.070312 2.746094 -31.882812 2.152344 -31.996094 C 2.042969 -32.03125 1.929688 -31.957031 1.855469 -31.921875 C 1.707031 -31.511719 1.707031 -31.066406 1.820312 -30.695312 C 1.929688 -30.289062 1.894531 -29.917969 1.929688 -29.546875 C 1.929688 -29.175781 1.894531 -28.765625 1.929688 -28.394531 C 1.929688 -28.246094 2.003906 -28.0625 2.078125 -27.875 C 1.929688 -27.691406 1.96875 -27.46875 1.96875 -27.207031 L 1.96875 -25.535156 C 1.96875 -24.792969 2.003906 -24.015625 1.746094 -23.273438 C 1.96875 -22.308594 2.042969 -20.785156 1.820312 -19.078125 C 1.484375 -18.929688 1.113281 -19.042969 0.78125 -18.96875 C 0.59375 -18.820312 0.410156 -18.671875 0.296875 -18.410156 C 0.410156 -17.816406 0.59375 -17.148438 0.667969 -16.515625 C 0.742188 -15.8125 0.890625 -15.144531 0.964844 -14.585938 C 1.300781 -14.289062 1.707031 -14.585938 1.894531 -14.253906 C 1.929688 -11.542969 1.96875 -8.835938 1.96875 -6.125 C 1.96875 -5.789062 2.191406 -5.457031 2.003906 -5.121094 C 1.855469 -4.824219 2.152344 -4.601562 2.042969 -4.304688 C 1.929688 -4.046875 1.96875 -3.75 1.929688 -3.488281 L 1.929688 -2.636719 C 1.929688 -2.042969 1.96875 -1.410156 1.929688 -0.78125 C 1.929688 -0.59375 1.894531 -0.445312 2.003906 -0.296875 C 2.226562 0 2.5625 -0.0390625 2.894531 0 C 3.304688 0.0390625 3.710938 -0.0742188 4.121094 0.0742188 C 4.527344 -0.113281 4.9375 0.113281 5.34375 0.148438 C 5.640625 0.148438 5.902344 0.0390625 6.273438 0 C 6.308594 0.0390625 6.382812 0.0742188 6.457031 0.0742188 L 6.457031 -1.96875 C 6.308594 -2.265625 6.421875 -7.609375 6.421875 -7.609375 C 6.421875 -8.277344 6.496094 -9.613281 6.496094 -10.839844 L 6.382812 -11.246094 C 6.421875 -11.46875 6.457031 -11.65625 6.457031 -11.878906 C 6.457031 -12.210938 6.457031 -12.507812 6.421875 -12.730469 C 6.273438 -13.917969 6.347656 -15.144531 6.347656 -16.367188 C 6.347656 -16.515625 6.421875 -16.664062 6.421875 -16.777344 C 6.382812 -17.519531 6.570312 -18.113281 6.457031 -18.746094 C 6.347656 -19.859375 6.308594 -20.230469 6.382812 -21.195312 C 6.421875 -21.640625 6.421875 -22.046875 6.382812 -22.457031 C 6.421875 -22.9375 6.457031 -23.570312 6.457031 -24.050781 L 6.457031 -24.71875 L 6.382812 -25.238281 L 6.382812 -25.351562 C 6.382812 -25.460938 6.421875 -25.535156 6.421875 -25.648438 C 6.382812 -26.390625 6.308594 -27.097656 6.308594 -27.875 C 6.308594 -27.988281 6.308594 -28.171875 6.347656 -28.246094 C 6.457031 -28.542969 6.308594 -28.804688 6.382812 -29.175781 C 6.457031 -29.472656 6.199219 -29.84375 6.347656 -30.289062 C 6.382812 -30.4375 6.347656 -31.066406 6.347656 -31.253906 L 6.347656 -31.808594 C 6.050781 -31.808594 5.789062 -31.847656 5.492188 -31.921875 Z M 10.394531 0 C 10.691406 0 11.023438 0.0390625 11.359375 -0.148438 C 11.394531 -0.222656 11.46875 -0.335938 11.507812 -0.484375 C 11.542969 -0.890625 11.542969 -1.300781 11.542969 -1.707031 C 11.542969 -2.5625 11.542969 -3.378906 11.617188 -4.195312 C 11.507812 -4.378906 11.617188 -4.640625 11.394531 -4.789062 C 10.394531 -4.75 9.316406 -4.9375 8.3125 -4.640625 C 8.089844 -4.675781 7.832031 -4.789062 7.609375 -4.789062 C 7.570312 -3.933594 7.496094 -3.042969 7.535156 -2.191406 L 7.535156 0.148438 C 8.460938 -0.0390625 9.390625 -0.0742188 10.394531 0 Z M 10.800781 -31.957031 C 10.542969 -31.882812 10.320312 -31.773438 10.097656 -31.808594 C 9.242188 -31.847656 8.386719 -31.773438 7.535156 -31.773438 C 7.496094 -31.625 7.460938 -31.4375 7.460938 -31.289062 C 7.570312 -31.179688 7.535156 -30.917969 7.609375 -30.695312 L 7.71875 -30.027344 L 7.609375 -29.359375 C 7.609375 -28.914062 7.644531 -28.433594 7.570312 -28.023438 C 7.535156 -27.875 7.535156 -27.691406 7.535156 -27.542969 C 7.71875 -27.542969 7.867188 -27.46875 8.015625 -27.429688 C 8.164062 -27.503906 8.3125 -27.578125 8.425781 -27.578125 C 8.648438 -27.617188 8.835938 -27.617188 9.058594 -27.617188 C 9.761719 -27.578125 10.429688 -27.726562 11.097656 -27.914062 C 11.246094 -28.953125 11.0625 -29.953125 11.136719 -30.957031 C 11.171875 -31.140625 11.136719 -31.363281 11.136719 -31.585938 C 11.097656 -31.699219 11.023438 -31.808594 10.800781 -31.957031 Z M 10.246094 -14.550781 C 10.394531 -14.550781 10.503906 -14.625 10.542969 -14.734375 L 10.542969 -15.589844 C 10.542969 -15.847656 10.578125 -16.144531 10.542969 -16.40625 C 10.542969 -16.664062 10.394531 -16.925781 10.503906 -17.183594 C 10.320312 -17.480469 10.652344 -17.742188 10.503906 -18.003906 C 10.355469 -18.261719 10.691406 -18.523438 10.429688 -18.820312 C 10.320312 -18.96875 10.132812 -19.042969 9.910156 -19.042969 L 8.910156 -18.929688 C 8.535156 -18.855469 8.089844 -18.820312 7.570312 -18.855469 C 7.609375 -17.59375 7.683594 -16.367188 7.757812 -16.109375 C 7.757812 -15.960938 7.71875 -15.292969 7.683594 -14.4375 Z M 10.246094 -14.550781 "/></g></g></g><g fill="#ffffff" fill-opacity="1"><g transform="translate(453.25765, 43.93914)"><g/></g></g><g fill="#ffffff" fill-opacity="1"><g transform="translate(490.303978, 43.93914)"><g><path d="M 9.167969 -4.453125 C 8.871094 -4.15625 8.574219 -3.933594 8.238281 -3.824219 C 8.238281 -3.785156 8.203125 -3.75 8.203125 -3.710938 C 8.054688 -3.488281 8.238281 -3.265625 8.128906 -3.042969 C 8.015625 -2.820312 8.203125 -2.597656 8.089844 -2.339844 C 8.015625 -2.117188 8.089844 -1.855469 8.089844 -1.632812 C 8.054688 -1.335938 8.164062 -1.078125 8.203125 -0.816406 C 8.015625 -0.484375 8.089844 -0.148438 8.128906 0.222656 L 8.128906 0.371094 C 8.351562 0.335938 8.574219 0.296875 8.835938 0.222656 C 8.945312 0.1875 9.058594 0.222656 9.167969 0.222656 C 9.539062 0.222656 9.910156 0.0742188 10.246094 -0.0742188 C 10.839844 -0.296875 11.359375 -0.632812 11.878906 -1.003906 C 12.546875 -1.523438 13.101562 -2.339844 13.398438 -3.230469 L 13.398438 -4.601562 C 13.398438 -5.046875 13.363281 -5.53125 13.4375 -5.976562 C 13.511719 -6.421875 13.4375 -6.902344 13.398438 -7.347656 C 13.398438 -7.460938 13.4375 -7.570312 13.472656 -7.683594 C 13.621094 -8.015625 13.585938 -8.351562 13.585938 -8.683594 C 13.585938 -9.503906 13.660156 -10.320312 13.546875 -11.097656 C 13.472656 -11.730469 13.363281 -12.359375 13.066406 -12.992188 C 12.507812 -14.179688 11.765625 -15.21875 11.136719 -16.292969 C 11.023438 -16.515625 10.839844 -16.703125 10.652344 -16.851562 C 10.46875 -17.035156 10.320312 -17.222656 10.207031 -17.40625 C 9.949219 -17.816406 9.613281 -18.1875 9.355469 -18.597656 C 9.058594 -19.003906 8.757812 -19.375 8.535156 -19.785156 C 8.238281 -20.339844 7.90625 -20.824219 7.535156 -21.269531 C 6.867188 -22.011719 6.234375 -22.789062 5.902344 -23.753906 L 5.640625 -24.3125 C 5.605469 -24.832031 5.789062 -25.3125 5.714844 -25.757812 C 5.605469 -26.316406 5.902344 -26.800781 5.863281 -27.28125 C 6.011719 -27.46875 6.085938 -27.617188 6.234375 -27.726562 C 6.308594 -27.800781 6.457031 -27.875 6.570312 -27.914062 C 6.679688 -27.949219 6.792969 -27.988281 6.902344 -27.988281 C 6.867188 -28.285156 6.792969 -29.324219 6.902344 -30.585938 C 6.941406 -31.105469 6.828125 -31.882812 6.867188 -32.367188 C 6.792969 -32.367188 6.753906 -32.328125 6.71875 -32.328125 C 5.679688 -32.105469 4.601562 -31.882812 3.710938 -31.289062 C 2.671875 -30.660156 1.78125 -29.917969 1.410156 -28.691406 C 1.261719 -28.210938 1.1875 -27.691406 1.113281 -27.207031 C 1.078125 -27.171875 1.113281 -27.132812 1.113281 -27.097656 L 1.226562 -26.316406 C 1.261719 -26.019531 1.152344 -25.757812 1.226562 -25.5 C 1.300781 -25.238281 1.226562 -24.941406 1.261719 -24.644531 C 1.261719 -24.421875 1.226562 -24.164062 1.300781 -23.941406 C 1.449219 -23.457031 1.449219 -22.976562 1.523438 -22.492188 L 1.929688 -21.675781 L 2.636719 -20.488281 C 2.859375 -20.15625 3.15625 -19.820312 3.304688 -19.449219 C 3.488281 -19.042969 3.785156 -18.707031 4.007812 -18.335938 C 4.304688 -17.78125 4.640625 -17.183594 5.195312 -16.777344 C 5.34375 -16.664062 5.457031 -16.441406 5.53125 -16.257812 C 6.199219 -15.070312 7.015625 -13.992188 7.867188 -12.953125 C 8.238281 -12.507812 8.609375 -12.027344 8.796875 -11.46875 L 9.242188 -10.28125 C 9.242188 -9.949219 9.167969 -9.503906 9.242188 -9.058594 C 9.316406 -8.574219 9.207031 -8.164062 9.242188 -7.71875 C 9.242188 -7.460938 9.242188 -7.238281 9.316406 -6.976562 C 9.390625 -6.71875 9.355469 -6.457031 9.390625 -6.160156 C 9.464844 -5.566406 9.242188 -5.011719 9.167969 -4.453125 Z M 5.902344 -4.269531 C 5.714844 -4.972656 5.679688 -5.679688 5.640625 -6.347656 C 5.640625 -6.570312 5.679688 -6.792969 5.605469 -6.976562 C 5.382812 -7.792969 5.492188 -8.648438 5.457031 -9.464844 L 5.457031 -10.394531 C 5.457031 -10.46875 5.417969 -10.542969 5.417969 -10.578125 C 5.308594 -10.726562 5.195312 -10.800781 5.046875 -10.800781 C 4.75 -10.726562 4.453125 -10.578125 4.15625 -10.765625 C 4.007812 -10.839844 3.898438 -10.800781 3.75 -10.765625 C 3.007812 -10.691406 2.265625 -10.652344 1.523438 -10.617188 C 1.261719 -10.429688 1.003906 -10.355469 0.890625 -9.984375 C 1.003906 -9.800781 1.039062 -9.503906 1.039062 -9.242188 C 1.113281 -8.015625 0.964844 -6.792969 1.226562 -5.605469 C 1.261719 -5.492188 1.226562 -5.382812 1.226562 -5.308594 C 1.226562 -4.304688 1.375 -3.304688 1.894531 -2.449219 C 2.5625 -1.375 3.453125 -0.410156 4.640625 0.0390625 C 4.972656 0.148438 5.34375 0.113281 5.679688 0.222656 C 6.085938 0.296875 6.53125 0.371094 6.976562 0.410156 C 6.976562 0.222656 6.941406 0 6.941406 -0.1875 C 6.976562 -0.667969 7.015625 -1.300781 7.015625 -1.78125 C 7.015625 -2.449219 6.976562 -3.117188 6.941406 -3.785156 C 6.570312 -3.824219 6.199219 -3.972656 5.902344 -4.269531 Z M 9.167969 -26.910156 C 9.167969 -26.203125 9.242188 -25.460938 9.058594 -24.757812 C 8.984375 -24.496094 9.019531 -24.199219 9.09375 -23.941406 C 9.207031 -23.570312 9.167969 -23.234375 9.167969 -22.902344 C 9.167969 -22.714844 9.207031 -22.566406 9.242188 -22.457031 C 9.390625 -22.269531 9.539062 -22.160156 9.726562 -22.121094 C 10.394531 -22.34375 11.0625 -22.640625 11.65625 -23.050781 C 11.953125 -23.273438 12.285156 -23.382812 12.582031 -23.53125 L 13.695312 -24.089844 C 13.546875 -24.792969 13.585938 -25.5 13.621094 -26.167969 C 13.660156 -27.320312 13.472656 -28.394531 13.027344 -29.472656 C 12.472656 -30.140625 11.839844 -30.769531 11.136719 -31.328125 C 10.765625 -31.363281 10.46875 -31.550781 10.171875 -31.699219 C 9.503906 -31.996094 8.722656 -32.144531 8.054688 -32.253906 C 8.089844 -31.289062 8.054688 -30.472656 8.015625 -29.621094 C 8.015625 -29.136719 7.980469 -28.65625 8.015625 -28.171875 L 8.015625 -27.988281 C 8.574219 -27.875 8.984375 -27.578125 9.167969 -26.910156 Z M 9.167969 -26.910156 "/></g></g></g><g fill="#ffffff" fill-opacity="1"><g transform="translate(534.586872, 43.93914)"><g><path d="M 5.492188 -31.921875 C 5.195312 -31.734375 4.824219 -31.996094 4.492188 -31.847656 C 4.378906 -31.773438 4.15625 -31.773438 4.007812 -31.808594 C 3.378906 -32.070312 2.746094 -31.882812 2.152344 -31.996094 C 2.042969 -32.03125 1.929688 -31.957031 1.855469 -31.921875 C 1.707031 -31.511719 1.707031 -31.066406 1.820312 -30.695312 C 1.929688 -30.289062 1.894531 -29.917969 1.929688 -29.546875 C 1.929688 -29.175781 1.894531 -28.765625 1.929688 -28.394531 C 1.929688 -28.246094 2.003906 -28.0625 2.078125 -27.875 C 1.929688 -27.691406 1.96875 -27.46875 1.96875 -27.207031 L 1.96875 -25.535156 C 1.96875 -24.792969 2.003906 -24.015625 1.746094 -23.273438 C 1.96875 -22.308594 2.042969 -20.785156 1.820312 -19.078125 C 1.484375 -18.929688 1.113281 -19.042969 0.78125 -18.96875 C 0.59375 -18.820312 0.410156 -18.671875 0.296875 -18.410156 C 0.410156 -17.816406 0.59375 -17.148438 0.667969 -16.515625 C 0.742188 -15.8125 0.890625 -15.144531 0.964844 -14.585938 C 1.300781 -14.289062 1.707031 -14.585938 1.894531 -14.253906 C 1.929688 -11.542969 1.96875 -8.835938 1.96875 -6.125 C 1.96875 -5.789062 2.191406 -5.457031 2.003906 -5.121094 C 1.855469 -4.824219 2.152344 -4.601562 2.042969 -4.304688 C 1.929688 -4.046875 1.96875 -3.75 1.929688 -3.488281 L 1.929688 -2.636719 C 1.929688 -2.042969 1.96875 -1.410156 1.929688 -0.78125 C 1.929688 -0.59375 1.894531 -0.445312 2.003906 -0.296875 C 2.226562 0 2.5625 -0.0390625 2.894531 0 C 3.304688 0.0390625 3.710938 -0.0742188 4.121094 0.0742188 C 4.527344 -0.113281 4.9375 0.113281 5.34375 0.148438 C 5.640625 0.148438 5.902344 0.0390625 6.273438 0 C 6.308594 0.0390625 6.382812 0.0742188 6.457031 0.0742188 L 6.457031 -1.96875 C 6.308594 -2.265625 6.421875 -7.609375 6.421875 -7.609375 C 6.421875 -8.277344 6.496094 -9.613281 6.496094 -10.839844 L 6.382812 -11.246094 C 6.421875 -11.46875 6.457031 -11.65625 6.457031 -11.878906 C 6.457031 -12.210938 6.457031 -12.507812 6.421875 -12.730469 C 6.273438 -13.917969 6.347656 -15.144531 6.347656 -16.367188 C 6.347656 -16.515625 6.421875 -16.664062 6.421875 -16.777344 C 6.382812 -17.519531 6.570312 -18.113281 6.457031 -18.746094 C 6.347656 -19.859375 6.308594 -20.230469 6.382812 -21.195312 C 6.421875 -21.640625 6.421875 -22.046875 6.382812 -22.457031 C 6.421875 -22.9375 6.457031 -23.570312 6.457031 -24.050781 L 6.457031 -24.71875 L 6.382812 -25.238281 L 6.382812 -25.351562 C 6.382812 -25.460938 6.421875 -25.535156 6.421875 -25.648438 C 6.382812 -26.390625 6.308594 -27.097656 6.308594 -27.875 C 6.308594 -27.988281 6.308594 -28.171875 6.347656 -28.246094 C 6.457031 -28.542969 6.308594 -28.804688 6.382812 -29.175781 C 6.457031 -29.472656 6.199219 -29.84375 6.347656 -30.289062 C 6.382812 -30.4375 6.347656 -31.066406 6.347656 -31.253906 L 6.347656 -31.808594 C 6.050781 -31.808594 5.789062 -31.847656 5.492188 -31.921875 Z M 10.394531 0 C 10.691406 0 11.023438 0.0390625 11.359375 -0.148438 C 11.394531 -0.222656 11.46875 -0.335938 11.507812 -0.484375 C 11.542969 -0.890625 11.542969 -1.300781 11.542969 -1.707031 C 11.542969 -2.5625 11.542969 -3.378906 11.617188 -4.195312 C 11.507812 -4.378906 11.617188 -4.640625 11.394531 -4.789062 C 10.394531 -4.75 9.316406 -4.9375 8.3125 -4.640625 C 8.089844 -4.675781 7.832031 -4.789062 7.609375 -4.789062 C 7.570312 -3.933594 7.496094 -3.042969 7.535156 -2.191406 L 7.535156 0.148438 C 8.460938 -0.0390625 9.390625 -0.0742188 10.394531 0 Z M 10.800781 -31.957031 C 10.542969 -31.882812 10.320312 -31.773438 10.097656 -31.808594 C 9.242188 -31.847656 8.386719 -31.773438 7.535156 -31.773438 C 7.496094 -31.625 7.460938 -31.4375 7.460938 -31.289062 C 7.570312 -31.179688 7.535156 -30.917969 7.609375 -30.695312 L 7.71875 -30.027344 L 7.609375 -29.359375 C 7.609375 -28.914062 7.644531 -28.433594 7.570312 -28.023438 C 7.535156 -27.875 7.535156 -27.691406 7.535156 -27.542969 C 7.71875 -27.542969 7.867188 -27.46875 8.015625 -27.429688 C 8.164062 -27.503906 8.3125 -27.578125 8.425781 -27.578125 C 8.648438 -27.617188 8.835938 -27.617188 9.058594 -27.617188 C 9.761719 -27.578125 10.429688 -27.726562 11.097656 -27.914062 C 11.246094 -28.953125 11.0625 -29.953125 11.136719 -30.957031 C 11.171875 -31.140625 11.136719 -31.363281 11.136719 -31.585938 C 11.097656 -31.699219 11.023438 -31.808594 10.800781 -31.957031 Z M 10.246094 -14.550781 C 10.394531 -14.550781 10.503906 -14.625 10.542969 -14.734375 L 10.542969 -15.589844 C 10.542969 -15.847656 10.578125 -16.144531 10.542969 -16.40625 C 10.542969 -16.664062 10.394531 -16.925781 10.503906 -17.183594 C 10.320312 -17.480469 10.652344 -17.742188 10.503906 -18.003906 C 10.355469 -18.261719 10.691406 -18.523438 10.429688 -18.820312 C 10.320312 -18.96875 10.132812 -19.042969 9.910156 -19.042969 L 8.910156 -18.929688 C 8.535156 -18.855469 8.089844 -18.820312 7.570312 -18.855469 C 7.609375 -17.59375 7.683594 -16.367188 7.757812 -16.109375 C 7.757812 -15.960938 7.71875 -15.292969 7.683594 -14.4375 Z M 10.246094 -14.550781 "/></g></g></g><g fill="#ffffff" fill-opacity="1"><g transform="translate(576.56887, 43.93914)"><g><path d="M 11.65625 -13.882812 C 11.542969 -14.214844 11.46875 -14.476562 11.433594 -14.699219 C 11.320312 -14.625 11.246094 -14.699219 11.210938 -14.773438 C 11.394531 -15.144531 11.136719 -15.402344 11.0625 -15.738281 C 10.914062 -16.332031 10.800781 -16.925781 10.503906 -17.445312 C 10.320312 -17.816406 9.984375 -19.523438 9.835938 -19.894531 C 9.652344 -20.304688 9.464844 -20.710938 9.464844 -21.15625 C 9.464844 -21.269531 9.390625 -21.34375 9.355469 -21.417969 C 9.132812 -21.898438 8.984375 -22.457031 8.722656 -22.9375 C 8.460938 -23.421875 8.386719 -24.015625 8.203125 -24.535156 C 7.867188 -25.5 7.683594 -26.464844 7.386719 -27.429688 C 7.273438 -27.839844 7.238281 -28.285156 7.050781 -28.65625 C 6.792969 -29.101562 6.753906 -29.621094 6.53125 -30.101562 C 6.347656 -30.546875 6.199219 -30.992188 6.085938 -31.476562 C 6.050781 -31.660156 5.9375 -31.808594 5.753906 -31.882812 C 5.160156 -31.660156 4.492188 -32.144531 3.898438 -31.773438 C 2.894531 -31.773438 2.375 -31.957031 1.820312 -31.734375 C 1.746094 -31.808594 1.632812 -31.847656 1.558594 -31.808594 C 2.003906 -30.324219 2.597656 -29.359375 2.746094 -29.136719 C 2.894531 -28.839844 3.191406 -27.429688 3.527344 -27.171875 C 3.636719 -26.167969 4.046875 -25.238281 4.417969 -24.238281 C 4.824219 -22.863281 5.011719 -21.492188 5.566406 -20.230469 L 6.050781 -18.597656 C 6.234375 -18.300781 6.421875 -18.003906 6.382812 -17.628906 L 6.605469 -17.371094 C 6.496094 -17.257812 6.71875 -17.148438 6.570312 -17.035156 L 6.867188 -16.703125 C 6.605469 -16.628906 6.941406 -16.480469 6.792969 -16.40625 L 7.089844 -16.070312 C 7.199219 -15.292969 7.386719 -14.585938 7.570312 -13.882812 C 7.941406 -12.769531 8.277344 -11.617188 8.609375 -10.503906 C 8.757812 -9.949219 8.835938 -9.355469 9.058594 -8.796875 C 9.207031 -8.277344 9.429688 -7.792969 9.652344 -7.273438 C 9.949219 -6.53125 10.132812 -5.828125 10.28125 -5.011719 C 10.355469 -4.75 10.542969 -4.527344 10.617188 -4.269531 C 10.839844 -3.117188 11.171875 -1.96875 11.46875 -0.816406 C 11.542969 -0.558594 11.617188 -0.222656 11.953125 -0.0742188 L 12.582031 -0.0742188 C 12.804688 -0.0390625 13.25 -0.1875 13.546875 -0.113281 C 13.992188 0 14.476562 0.222656 14.996094 0.0390625 C 15.402344 0.222656 15.664062 0 15.996094 -0.1875 L 15.625 -1.410156 C 15.402344 -1.707031 13.957031 -6.792969 13.957031 -6.792969 C 13.660156 -7.90625 12.992188 -10.691406 12.507812 -11.730469 C 12.175781 -12.507812 11.914062 -13.324219 11.691406 -14.140625 C 11.691406 -14.03125 11.65625 -13.957031 11.65625 -13.882812 Z M 1.375 -25.871094 C 1.335938 -25.796875 1.449219 -25.609375 1.523438 -25.5 C 1.410156 -25.351562 1.410156 -25.164062 1.410156 -24.980469 C 1.449219 -24.496094 1.375 -24.757812 1.375 -24.570312 C 1.375 -23.828125 1.484375 -23.753906 1.410156 -23.050781 C 1.410156 -22.457031 1.300781 -21.863281 1.335938 -21.304688 C 1.410156 -20.007812 1.410156 -19.488281 1.449219 -18.226562 C 1.449219 -17.480469 1.335938 -16.738281 1.410156 -15.996094 C 1.449219 -15.515625 1.632812 -15.03125 1.558594 -14.585938 C 1.558594 -14.363281 1.410156 -12.769531 1.449219 -12.546875 C 1.484375 -12.285156 1.484375 -11.988281 1.449219 -11.730469 C 1.335938 -11.097656 1.335938 -10.503906 1.449219 -9.875 C 1.523438 -9.464844 1.449219 -8.984375 1.523438 -8.574219 C 1.558594 -8.203125 1.375 -7.832031 1.484375 -7.460938 C 1.597656 -7.199219 1.558594 -6.941406 1.558594 -6.644531 C 1.523438 -6.160156 1.523438 -5.679688 1.558594 -5.195312 C 1.632812 -4.417969 1.632812 -3.601562 1.558594 -2.859375 C 1.449219 -1.96875 1.523438 -1.113281 1.484375 -0.261719 C 1.597656 -0.113281 1.671875 0.0390625 1.855469 0.0390625 C 2.300781 -0.1875 2.597656 -0.148438 3.082031 -0.0742188 C 3.675781 0.0390625 4.527344 -0.0390625 4.675781 -0.148438 C 4.972656 -0.113281 5.195312 -0.261719 5.492188 -0.0742188 C 5.714844 0.0742188 6.125 -0.0390625 6.234375 -0.222656 C 6.308594 -0.371094 6.160156 -0.484375 6.160156 -0.59375 C 6.199219 -0.742188 6.347656 -0.78125 6.382812 -0.964844 L 6.382812 -2.339844 L 6.308594 -4.566406 C 6.273438 -4.9375 6.308594 -5.308594 6.125 -5.679688 C 6.308594 -5.863281 6.273438 -6.085938 6.273438 -6.273438 C 6.199219 -7.535156 6.125 -8.757812 6.160156 -10.023438 C 6.160156 -10.171875 6.085938 -10.355469 6.125 -10.503906 C 6.160156 -11.359375 6.160156 -12.175781 6.085938 -13.027344 C 6.011719 -13.546875 5.976562 -14.03125 5.9375 -14.550781 L 5.9375 -15.625 L 5.902344 -15.664062 L 4.601562 -19.636719 C 4.34375 -19.933594 2.785156 -24.980469 2.785156 -24.980469 C 2.488281 -25.90625 1.855469 -27.691406 1.375 -28.953125 C 1.375 -28.582031 1.300781 -26.351562 1.375 -25.871094 Z M 11.582031 -31.957031 C 11.285156 -31.625 11.320312 -31.328125 11.359375 -31.03125 C 11.46875 -30.289062 11.359375 -29.507812 11.359375 -28.730469 C 11.394531 -27.914062 11.359375 -27.058594 11.359375 -26.242188 C 11.359375 -26.128906 11.359375 -25.980469 11.320312 -25.871094 C 11.171875 -25.535156 11.246094 -25.164062 11.285156 -24.832031 C 11.394531 -24.347656 11.394531 -23.867188 11.433594 -23.382812 C 11.507812 -22.382812 11.46875 -21.378906 11.46875 -20.414062 C 11.46875 -20.042969 11.507812 -19.488281 11.542969 -18.894531 C 11.988281 -17.40625 12.582031 -15.625 12.804688 -15.328125 C 12.917969 -14.957031 14.140625 -10.246094 14.363281 -9.910156 C 14.511719 -9.613281 14.402344 -9.242188 14.734375 -8.984375 C 14.847656 -7.980469 15.21875 -7.015625 15.550781 -6.011719 C 15.847656 -4.9375 15.996094 -3.824219 16.332031 -2.785156 C 16.332031 -3.007812 16.332031 -3.230469 16.367188 -3.488281 C 16.40625 -3.972656 16.332031 -4.492188 16.367188 -5.011719 C 16.40625 -5.53125 16.40625 -6.085938 16.40625 -6.644531 C 16.40625 -7.71875 16.21875 -8.796875 16.257812 -9.910156 C 16.292969 -10.320312 16.21875 -10.691406 16.183594 -11.097656 C 16.144531 -11.246094 16.144531 -11.433594 16.144531 -11.617188 L 16.257812 -13.84375 C 16.292969 -14.476562 16.21875 -15.070312 16.183594 -15.664062 C 16.144531 -15.996094 16.21875 -16.367188 16.109375 -16.703125 C 15.996094 -17.109375 16.035156 -17.519531 15.960938 -17.929688 C 15.886719 -18.410156 15.960938 -18.929688 15.960938 -19.449219 C 15.960938 -19.96875 15.960938 -20.488281 15.921875 -21.007812 C 15.886719 -21.527344 15.960938 -22.046875 15.960938 -22.53125 C 15.921875 -23.125 15.960938 -23.679688 15.960938 -24.238281 L 15.960938 -31.402344 C 15.960938 -31.511719 15.960938 -31.660156 15.773438 -31.808594 C 14.402344 -31.808594 12.992188 -31.773438 11.582031 -31.957031 Z M 11.582031 -31.957031 "/></g></g></g><g fill="#ffffff" fill-opacity="1"><g transform="translate(623.931956, 43.93914)"><g><path d="M 10.058594 -25.089844 C 10.171875 -25.089844 10.207031 -25.089844 10.207031 -25.015625 C 10.207031 -24.980469 10.171875 -24.980469 10.171875 -24.941406 C 10.132812 -24.980469 9.984375 -24.792969 10.023438 -24.683594 C 10.171875 -23.644531 10.058594 -22.714844 10.097656 -21.675781 C 10.132812 -21.304688 10.058594 -20.933594 9.984375 -20.5625 C 10.023438 -20.453125 10.097656 -20.339844 10.058594 -20.265625 C 10.023438 -19.894531 10.058594 -19.523438 10.058594 -19.191406 C 9.652344 -19.042969 9.28125 -19.078125 8.945312 -19.191406 C 8.535156 -19.117188 8.203125 -19.042969 7.90625 -19.042969 C 7.90625 -18.484375 7.867188 -17.929688 7.90625 -17.371094 L 7.941406 -16.40625 C 7.941406 -16.21875 7.90625 -15.589844 7.941406 -15.441406 C 8.089844 -14.996094 7.832031 -14.660156 7.867188 -14.363281 C 8.386719 -14.476562 8.910156 -14.4375 9.390625 -14.476562 C 9.578125 -14.476562 9.761719 -14.476562 9.910156 -14.214844 L 9.910156 -9.613281 C 9.910156 -9.207031 9.875 -8.835938 10.023438 -8.460938 C 10.171875 -8.164062 9.835938 -7.792969 10.058594 -7.460938 C 10.097656 -7.386719 10.058594 -7.273438 10.058594 -7.164062 C 9.835938 -6.308594 9.910156 -5.457031 9.875 -4.566406 C 9.835938 -3.414062 9.949219 -2.003906 9.800781 -0.816406 C 9.761719 -0.558594 9.835938 -0.296875 10.132812 -0.113281 C 10.617188 0.0390625 11.136719 -0.1875 11.65625 -0.0742188 C 12.101562 -0.296875 12.582031 -0.148438 13.066406 -0.1875 C 13.585938 -0.222656 14.105469 -0.113281 14.585938 -0.261719 C 14.773438 -0.59375 14.734375 -0.855469 14.660156 -1.152344 C 14.625 -1.300781 14.511719 -1.671875 14.511719 -1.855469 L 14.511719 -5.195312 C 14.511719 -5.492188 14.773438 -5.789062 14.625 -6.085938 C 14.476562 -6.457031 14.699219 -6.753906 14.660156 -7.089844 C 14.585938 -8.089844 14.773438 -9.132812 14.511719 -10.097656 C 14.476562 -10.28125 14.476562 -10.46875 14.476562 -10.617188 L 14.585938 -11.433594 C 14.585938 -11.730469 14.550781 -12.027344 14.585938 -12.324219 C 14.734375 -13.101562 14.585938 -13.84375 14.660156 -14.625 C 14.734375 -15.402344 14.4375 -16.183594 14.625 -16.960938 C 14.402344 -17.816406 14.476562 -18.707031 14.476562 -19.5625 C 14.476562 -20.601562 14.511719 -21.640625 14.511719 -22.714844 C 14.476562 -24.792969 14.476562 -26.875 14.476562 -28.953125 C 14.476562 -29.84375 14.4375 -30.769531 14.4375 -31.660156 L 14.105469 -31.957031 C 12.730469 -31.957031 11.359375 -32.105469 9.984375 -31.808594 C 9.835938 -31.214844 9.910156 -30.660156 10.058594 -30.175781 L 9.949219 -29.65625 C 10.132812 -28.097656 10.097656 -26.613281 10.058594 -25.089844 Z M 6.71875 -19.859375 C 6.71875 -20.785156 6.753906 -21.75 6.71875 -22.679688 C 6.679688 -23.867188 6.792969 -25.015625 6.570312 -26.203125 C 6.457031 -26.835938 6.53125 -27.542969 6.53125 -28.171875 C 6.53125 -29.101562 6.570312 -29.992188 6.53125 -30.882812 C 6.53125 -31.289062 6.457031 -31.660156 5.976562 -31.921875 C 5.828125 -31.921875 5.566406 -31.957031 5.34375 -31.882812 C 4.824219 -31.734375 4.34375 -31.808594 3.824219 -31.921875 C 3.378906 -31.957031 2.894531 -31.847656 2.414062 -31.808594 C 2.339844 -31.773438 2.265625 -31.699219 2.191406 -31.625 C 2.191406 -31.066406 2.152344 -30.511719 2.191406 -29.953125 C 2.191406 -29.730469 2.300781 -29.546875 2.300781 -29.324219 C 2.300781 -28.691406 2.488281 -28.023438 2.265625 -27.394531 C 2.152344 -27.023438 2.414062 -26.800781 2.339844 -26.464844 C 2.265625 -26.167969 2.117188 -25.871094 2.191406 -25.535156 C 2.226562 -25.5 2.226562 -25.425781 2.265625 -25.351562 C 2.300781 -25.164062 2.449219 -24.941406 2.339844 -24.757812 C 2.191406 -24.496094 2.414062 -24.273438 2.339844 -24.050781 C 2.152344 -23.457031 2.191406 -22.828125 2.191406 -22.234375 C 2.191406 -21.566406 2.152344 -20.933594 2.226562 -20.265625 C 2.265625 -19.894531 2.226562 -19.449219 2.117188 -19.117188 C 1.523438 -18.855469 0.855469 -19.265625 0.335938 -18.746094 C 0.1875 -17.855469 0.632812 -17.035156 0.816406 -16.144531 C 0.890625 -15.589844 0.855469 -14.921875 1.003906 -14.476562 C 1.226562 -14.253906 1.410156 -14.402344 1.632812 -14.402344 C 1.820312 -14.402344 2.003906 -14.4375 2.152344 -14.179688 C 2.152344 -13.917969 2.191406 -13.585938 2.152344 -13.214844 C 2.117188 -12.84375 2.300781 -12.507812 2.300781 -12.101562 C 2.300781 -11.0625 2.300781 -10.023438 2.414062 -9.019531 C 2.449219 -8.609375 2.339844 -8.238281 2.414062 -7.90625 C 2.488281 -7.460938 2.414062 -7.089844 2.375 -6.679688 C 2.339844 -4.601562 2.300781 -2.375 2.414062 -0.296875 C 2.414062 -0.261719 2.449219 -0.1875 2.488281 -0.0742188 L 2.859375 0.148438 C 4.007812 -0.113281 5.121094 0.113281 6.234375 -0.0742188 L 6.53125 -0.222656 L 6.53125 -1.261719 C 6.570312 -1.410156 6.605469 -1.746094 6.605469 -2.265625 C 6.570312 -2.5625 6.570312 -2.894531 6.679688 -3.191406 C 6.53125 -3.414062 6.71875 -3.675781 6.679688 -3.898438 C 6.679688 -4.121094 6.570312 -4.378906 6.53125 -4.601562 C 6.605469 -4.898438 6.679688 -5.195312 6.71875 -5.492188 L 6.71875 -7.238281 C 6.679688 -7.386719 6.679688 -7.570312 6.679688 -7.71875 C 6.457031 -8.089844 6.679688 -8.535156 6.570312 -8.910156 C 6.644531 -9.207031 6.71875 -9.464844 6.71875 -9.761719 C 6.644531 -10.023438 6.828125 -10.246094 6.71875 -10.46875 C 6.605469 -10.691406 6.792969 -10.914062 6.644531 -11.136719 C 6.53125 -11.320312 6.644531 -11.617188 6.644531 -11.839844 C 6.605469 -11.988281 6.605469 -12.175781 6.644531 -12.359375 L 6.71875 -13.140625 L 6.71875 -13.175781 C 6.644531 -13.585938 6.679688 -14.066406 6.679688 -14.511719 L 6.570312 -15.179688 L 6.679688 -15.847656 C 6.753906 -16.070312 6.71875 -16.332031 6.828125 -16.441406 C 6.679688 -17.480469 6.644531 -18.449219 6.679688 -19.449219 C 6.679688 -19.5625 6.644531 -19.636719 6.71875 -19.710938 Z M 6.71875 -19.859375 "/></g></g></g><g fill="#ffffff" fill-opacity="1"><g transform="translate(669.66218, 43.93914)"><g><path d="M 7.867188 -6.273438 C 8.128906 -6.308594 8.460938 -6.308594 8.757812 -6.308594 C 9.09375 -6.308594 9.242188 -6.273438 9.578125 -6.347656 C 9.800781 -6.421875 10.097656 -6.308594 10.355469 -6.308594 C 10.429688 -6.308594 10.429688 -6.234375 10.503906 -6.160156 C 10.617188 -6.050781 10.652344 -5.863281 10.652344 -5.753906 C 10.617188 -5.046875 10.988281 -4.417969 11.0625 -3.75 C 11.0625 -3.265625 11.210938 -2.820312 11.320312 -2.375 C 11.46875 -1.671875 11.46875 -0.855469 11.839844 -0.1875 C 11.914062 -0.0742188 11.839844 0.113281 12.0625 0.0742188 C 12.210938 0.0742188 12.324219 0.1875 12.472656 0.113281 C 12.621094 0 12.84375 -0.0742188 12.992188 -0.0742188 C 13.324219 -0.113281 13.660156 -0.113281 13.957031 -0.0742188 C 14.289062 0 14.660156 -0.148438 15.03125 0 C 15.21875 0.113281 15.550781 0.148438 15.773438 -0.113281 C 15.847656 -0.222656 16.035156 -0.261719 16.183594 -0.296875 C 15.886719 -1.1875 15.738281 -2.117188 15.589844 -3.007812 C 15.441406 -3.675781 15.253906 -4.34375 15.144531 -5.011719 C 14.996094 -6.011719 14.847656 -6.976562 14.734375 -7.941406 C 14.585938 -8.910156 14.660156 -9.875 14.363281 -10.800781 C 14.328125 -10.875 14.289062 -10.988281 14.328125 -11.097656 C 14.328125 -11.765625 13.992188 -12.136719 14.066406 -13.175781 C 14.105469 -13.546875 13.84375 -13.769531 13.808594 -14.140625 L 13.4375 -16.664062 C 13.363281 -17.109375 13.214844 -17.59375 13.25 -18.078125 C 13.289062 -18.1875 13.214844 -18.261719 13.214844 -18.335938 C 13.066406 -19.191406 12.804688 -20.007812 12.695312 -20.898438 C 12.621094 -21.417969 12.582031 -21.972656 12.472656 -22.492188 L 11.765625 -25.535156 C 11.65625 -26.167969 11.765625 -26.800781 11.691406 -27.429688 C 11.691406 -27.617188 11.582031 -27.765625 11.582031 -27.949219 C 11.582031 -28.542969 11.394531 -29.101562 11.285156 -29.695312 C 11.171875 -30.175781 10.839844 -30.808594 10.839844 -31.328125 C 10.839844 -31.476562 10.839844 -31.585938 10.652344 -31.660156 C 10.46875 -31.699219 10.320312 -31.847656 10.132812 -31.808594 C 9.652344 -31.773438 9.207031 -31.957031 8.722656 -31.847656 C 8.648438 -31.808594 8.574219 -31.808594 8.460938 -31.847656 C 8.128906 -31.957031 7.757812 -31.882812 7.386719 -31.957031 C 7.460938 -31.550781 7.570312 -31.140625 7.609375 -30.695312 C 7.609375 -30.585938 7.683594 -30.4375 7.71875 -30.289062 C 7.832031 -29.0625 8.054688 -27.839844 8.015625 -26.652344 C 7.980469 -25.5 8.460938 -22.679688 8.574219 -21.566406 C 8.574219 -21.566406 9.242188 -16.257812 9.132812 -15.960938 L 9.390625 -13.546875 L 9.390625 -13.398438 L 9.503906 -12.324219 C 9.613281 -11.878906 9.613281 -11.433594 9.613281 -11.023438 C 9.578125 -10.839844 9.761719 -10.765625 9.761719 -10.578125 C 9.132812 -10.652344 8.460938 -10.652344 7.832031 -10.617188 C 7.757812 -10.320312 7.609375 -10.097656 7.644531 -9.910156 C 7.644531 -9.539062 7.460938 -9.28125 7.535156 -8.984375 C 7.570312 -8.910156 7.535156 -8.722656 7.535156 -8.609375 L 7.089844 -6.308594 C 7.3125 -6.273438 7.535156 -6.234375 7.867188 -6.273438 Z M 6.644531 -11.839844 C 6.679688 -12.398438 6.792969 -12.917969 6.902344 -13.472656 C 6.941406 -14.03125 7.015625 -14.585938 7.164062 -15.179688 C 7.164062 -15.292969 7.164062 -15.441406 7.273438 -15.441406 C 7.3125 -15.847656 7.347656 -16.292969 7.496094 -16.738281 C 7.644531 -17.257812 7.496094 -17.628906 7.757812 -18.113281 C 7.609375 -18.820312 7.496094 -19.488281 7.421875 -20.230469 C 7.3125 -21.230469 7.3125 -22.308594 7.050781 -23.273438 C 7.273438 -23.644531 6.976562 -23.941406 7.015625 -24.273438 C 7.089844 -24.644531 6.382812 -29.472656 6.347656 -29.878906 C 6.382812 -30.101562 6.347656 -30.917969 6.273438 -31.847656 C 6.050781 -31.699219 5.902344 -31.402344 5.863281 -31.140625 C 5.753906 -30.546875 5.605469 -29.878906 5.382812 -29.0625 C 5.308594 -28.765625 5.195312 -28.46875 5.195312 -28.136719 C 5.234375 -27.503906 5.046875 -26.910156 4.9375 -26.277344 C 4.898438 -25.757812 4.714844 -25.277344 4.640625 -24.792969 C 4.601562 -24.460938 4.601562 -24.125 4.492188 -23.792969 C 4.34375 -23.234375 4.269531 -22.640625 4.378906 -22.085938 C 4.453125 -21.601562 4.121094 -21.675781 3.859375 -20.636719 C 3.675781 -19.859375 3.5625 -19.078125 3.453125 -18.300781 C 3.414062 -18.039062 3.304688 -17.816406 3.339844 -17.59375 C 3.378906 -17.296875 3.304688 -17.035156 3.265625 -16.777344 C 3.191406 -16.515625 3.117188 -16.257812 3.15625 -15.960938 C 3.15625 -15.699219 3.042969 -15.441406 2.96875 -15.21875 C 2.820312 -14.4375 2.671875 -13.660156 2.597656 -12.917969 L 2.523438 -11.878906 L 2.265625 -10.914062 C 2.265625 -10.800781 2.226562 -10.691406 2.226562 -10.578125 C 1.894531 -10.578125 1.523438 -10.542969 1.152344 -10.542969 C 0.929688 -10.503906 -0.0390625 -10.652344 -0.1875 -10.429688 C -0.1875 -10.28125 -0.148438 -9.726562 -0.0742188 -9.539062 C 0.113281 -9.058594 0.222656 -8.796875 0.1875 -8.3125 C 0.148438 -7.792969 0.445312 -7.3125 0.519531 -6.792969 C 0.558594 -6.71875 0.59375 -6.605469 0.59375 -6.605469 C 0.632812 -6.125 1.375 -6.199219 1.746094 -6.234375 C 1.671875 -5.753906 1.597656 -5.269531 1.558594 -4.789062 L 1.003906 -1.410156 L 0.816406 -0.632812 C 0.816406 -0.445312 0.667969 -0.1875 0.707031 -0.0390625 C 0.742188 0.113281 0.929688 0.113281 1.152344 0.0742188 C 1.707031 -0.0390625 1.707031 0.0742188 2.191406 0.0742188 C 2.339844 0 2.523438 0.148438 3.453125 0.0742188 C 3.75 0.0390625 4.046875 -0.0390625 4.34375 0.148438 C 4.492188 0 4.714844 0.148438 4.863281 -0.0390625 C 4.9375 -0.148438 5.011719 -0.261719 5.046875 -0.371094 C 5.269531 -1.746094 5.457031 -3.042969 5.457031 -3.042969 C 5.566406 -3.414062 5.679688 -3.75 5.53125 -4.082031 C 5.605469 -4.34375 5.714844 -4.601562 5.753906 -4.898438 C 5.789062 -5.085938 5.902344 -5.308594 5.863281 -5.566406 C 5.789062 -5.828125 5.976562 -6.011719 5.902344 -6.273438 C 5.863281 -6.496094 6.050781 -6.679688 5.9375 -6.941406 C 5.863281 -7.125 6.011719 -7.421875 6.011719 -7.644531 C 6.011719 -8.089844 6.347656 -8.5 6.308594 -8.945312 C 6.273438 -9.355469 6.382812 -9.835938 6.457031 -10.28125 L 6.421875 -10.949219 L 6.570312 -11.394531 Z M 6.644531 -11.839844 "/></g></g></g></svg>